<mxfile host="app.diagrams.net" modified="2024-05-10T02:53:52.238Z" agent="Mozilla/5.0 (Windows NT 10.0; Win64; x64) AppleWebKit/537.36 (KHTML, like Gecko) Chrome/124.0.0.0 Safari/537.36 Edg/124.0.0.0" etag="7vQ-VJuVE5rqYF5nH8sp" version="24.3.1" type="github" pages="9">
  <diagram name="Historias de Uso" id="cV4y8kwxbGSC_JQHxNcf">
    <mxGraphModel dx="1217" dy="709" grid="1" gridSize="10" guides="1" tooltips="1" connect="1" arrows="1" fold="1" page="1" pageScale="1" pageWidth="1169" pageHeight="827" math="0" shadow="0">
      <root>
        <mxCell id="y5e8XM1z7742Hf_tN0Tg-0" />
        <mxCell id="y5e8XM1z7742Hf_tN0Tg-1" parent="y5e8XM1z7742Hf_tN0Tg-0" />
        <mxCell id="kpPliEmfP3TKuj_YIWTA-0" value="Gestión de Horarios" style="whiteSpace=wrap;html=1;shape=mxgraph.basic.document;fillColor=#f8cecc;strokeColor=#b85450;fontSize=24;aspect=fixed;" parent="y5e8XM1z7742Hf_tN0Tg-1" vertex="1">
          <mxGeometry x="80" y="40" width="160" height="160" as="geometry" />
        </mxCell>
        <mxCell id="kpPliEmfP3TKuj_YIWTA-1" value="" style="shape=curlyBracket;whiteSpace=wrap;html=1;rounded=1;labelPosition=left;verticalLabelPosition=middle;align=right;verticalAlign=middle;" parent="y5e8XM1z7742Hf_tN0Tg-1" vertex="1">
          <mxGeometry x="30" y="30" width="20" height="180" as="geometry" />
        </mxCell>
        <mxCell id="kpPliEmfP3TKuj_YIWTA-2" value="" style="shape=curlyBracket;whiteSpace=wrap;html=1;rounded=1;labelPosition=left;verticalLabelPosition=middle;align=right;verticalAlign=middle;" parent="y5e8XM1z7742Hf_tN0Tg-1" vertex="1">
          <mxGeometry x="30" y="230" width="20" height="530" as="geometry" />
        </mxCell>
        <mxCell id="kpPliEmfP3TKuj_YIWTA-3" value="" style="shape=curlyBracket;whiteSpace=wrap;html=1;rounded=1;labelPosition=left;verticalLabelPosition=middle;align=right;verticalAlign=middle;" parent="y5e8XM1z7742Hf_tN0Tg-1" vertex="1">
          <mxGeometry x="30" y="790" width="20" height="500" as="geometry" />
        </mxCell>
        <mxCell id="kpPliEmfP3TKuj_YIWTA-4" value="Gestion de Cruces" style="whiteSpace=wrap;html=1;shape=mxgraph.basic.document;fillColor=#f8cecc;strokeColor=#b85450;fontSize=24;aspect=fixed;" parent="y5e8XM1z7742Hf_tN0Tg-1" vertex="1">
          <mxGeometry x="880" y="40" width="160" height="160" as="geometry" />
        </mxCell>
        <mxCell id="kpPliEmfP3TKuj_YIWTA-5" value="Administrador de eventos" style="whiteSpace=wrap;html=1;shape=mxgraph.basic.document;fillColor=#f8cecc;strokeColor=#b85450;fontSize=24;aspect=fixed;" parent="y5e8XM1z7742Hf_tN0Tg-1" vertex="1">
          <mxGeometry x="680" y="40" width="160" height="160" as="geometry" />
        </mxCell>
        <mxCell id="kpPliEmfP3TKuj_YIWTA-6" value="Administrador&lt;br&gt;&amp;nbsp;de Cuentas" style="whiteSpace=wrap;html=1;shape=mxgraph.basic.document;fillColor=#f8cecc;strokeColor=#b85450;fontSize=24;aspect=fixed;" parent="y5e8XM1z7742Hf_tN0Tg-1" vertex="1">
          <mxGeometry x="480" y="40" width="160" height="160" as="geometry" />
        </mxCell>
        <mxCell id="kpPliEmfP3TKuj_YIWTA-7" value="Generación de Horarios por los Estudiantes" style="whiteSpace=wrap;html=1;shape=mxgraph.basic.document;fillColor=#f8cecc;strokeColor=#b85450;fontSize=24;aspect=fixed;" parent="y5e8XM1z7742Hf_tN0Tg-1" vertex="1">
          <mxGeometry x="280" y="40" width="160" height="160" as="geometry" />
        </mxCell>
        <mxCell id="kpPliEmfP3TKuj_YIWTA-8" value="&lt;font style=&quot;font-size: 18px;&quot;&gt;Creación de plantilla de Horario&lt;/font&gt;" style="whiteSpace=wrap;html=1;shape=mxgraph.basic.document;fillColor=#e1d5e7;strokeColor=#9673a6;fontSize=18;aspect=fixed;" parent="y5e8XM1z7742Hf_tN0Tg-1" vertex="1">
          <mxGeometry x="80" y="240" width="120" height="120" as="geometry" />
        </mxCell>
        <mxCell id="kpPliEmfP3TKuj_YIWTA-9" value="Eliminación de plantilla de Horario" style="whiteSpace=wrap;html=1;shape=mxgraph.basic.document;fillColor=#e1d5e7;strokeColor=#9673a6;fontSize=18;aspect=fixed;" parent="y5e8XM1z7742Hf_tN0Tg-1" vertex="1">
          <mxGeometry x="80" y="370" width="120" height="120" as="geometry" />
        </mxCell>
        <mxCell id="kpPliEmfP3TKuj_YIWTA-10" value="Modificación de plantilla de Horario" style="whiteSpace=wrap;html=1;shape=mxgraph.basic.document;fillColor=#e1d5e7;strokeColor=#9673a6;fontSize=18;aspect=fixed;" parent="y5e8XM1z7742Hf_tN0Tg-1" vertex="1">
          <mxGeometry x="80" y="500" width="120" height="120" as="geometry" />
        </mxCell>
        <mxCell id="kpPliEmfP3TKuj_YIWTA-11" value="Consulta de plantilla de Horario" style="whiteSpace=wrap;html=1;shape=mxgraph.basic.document;fillColor=#e1d5e7;strokeColor=#9673a6;fontSize=18;aspect=fixed;" parent="y5e8XM1z7742Hf_tN0Tg-1" vertex="1">
          <mxGeometry x="80" y="630" width="120" height="120" as="geometry" />
        </mxCell>
        <mxCell id="kpPliEmfP3TKuj_YIWTA-16" value="&lt;font style=&quot;font-size: 18px;&quot;&gt;Creación de Cuentas de entidades&lt;/font&gt;" style="whiteSpace=wrap;html=1;shape=mxgraph.basic.document;fillColor=#e1d5e7;strokeColor=#9673a6;fontSize=18;aspect=fixed;" parent="y5e8XM1z7742Hf_tN0Tg-1" vertex="1">
          <mxGeometry x="480" y="800" width="120" height="120" as="geometry" />
        </mxCell>
        <mxCell id="kpPliEmfP3TKuj_YIWTA-17" value="Eliminación de Cuentas" style="whiteSpace=wrap;html=1;shape=mxgraph.basic.document;fillColor=#e1d5e7;strokeColor=#9673a6;fontSize=18;aspect=fixed;" parent="y5e8XM1z7742Hf_tN0Tg-1" vertex="1">
          <mxGeometry x="480" y="930" width="120" height="120" as="geometry" />
        </mxCell>
        <mxCell id="kpPliEmfP3TKuj_YIWTA-18" value="Modificación de permisos de cuentas" style="whiteSpace=wrap;html=1;shape=mxgraph.basic.document;fillColor=#e1d5e7;strokeColor=#9673a6;fontSize=18;aspect=fixed;" parent="y5e8XM1z7742Hf_tN0Tg-1" vertex="1">
          <mxGeometry x="480" y="1060" width="120" height="120" as="geometry" />
        </mxCell>
        <mxCell id="kpPliEmfP3TKuj_YIWTA-19" value="Consulta de Cuentas" style="whiteSpace=wrap;html=1;shape=mxgraph.basic.document;fillColor=#e1d5e7;strokeColor=#9673a6;fontSize=18;aspect=fixed;" parent="y5e8XM1z7742Hf_tN0Tg-1" vertex="1">
          <mxGeometry x="480" y="1190" width="120" height="120" as="geometry" />
        </mxCell>
        <mxCell id="kpPliEmfP3TKuj_YIWTA-20" value="Creación de eventos" style="whiteSpace=wrap;html=1;shape=mxgraph.basic.document;fillColor=#e1d5e7;strokeColor=#9673a6;fontSize=18;aspect=fixed;" parent="y5e8XM1z7742Hf_tN0Tg-1" vertex="1">
          <mxGeometry x="680" y="800" width="120" height="120" as="geometry" />
        </mxCell>
        <mxCell id="kpPliEmfP3TKuj_YIWTA-21" value="Eliminación de Eventos" style="whiteSpace=wrap;html=1;shape=mxgraph.basic.document;fillColor=#e1d5e7;strokeColor=#9673a6;fontSize=18;aspect=fixed;" parent="y5e8XM1z7742Hf_tN0Tg-1" vertex="1">
          <mxGeometry x="680" y="1060" width="120" height="120" as="geometry" />
        </mxCell>
        <mxCell id="kpPliEmfP3TKuj_YIWTA-22" value="Modificación de Eventos" style="whiteSpace=wrap;html=1;shape=mxgraph.basic.document;fillColor=#e1d5e7;strokeColor=#9673a6;fontSize=18;aspect=fixed;" parent="y5e8XM1z7742Hf_tN0Tg-1" vertex="1">
          <mxGeometry x="680" y="1190" width="120" height="120" as="geometry" />
        </mxCell>
        <mxCell id="kpPliEmfP3TKuj_YIWTA-23" value="Consulta de Eventos" style="whiteSpace=wrap;html=1;shape=mxgraph.basic.document;fillColor=#e1d5e7;strokeColor=#9673a6;fontSize=18;aspect=fixed;" parent="y5e8XM1z7742Hf_tN0Tg-1" vertex="1">
          <mxGeometry x="680" y="930" width="120" height="120" as="geometry" />
        </mxCell>
        <mxCell id="i9Zo0SUnKm8AQRqL4wvI-0" value="Aplicar Criterio por seleccion de materia y seccion" style="whiteSpace=wrap;html=1;shape=mxgraph.basic.document;fillColor=#e1d5e7;strokeColor=#9673a6;fontSize=18;aspect=fixed;" parent="y5e8XM1z7742Hf_tN0Tg-1" vertex="1">
          <mxGeometry x="280" y="630" width="120" height="120" as="geometry" />
        </mxCell>
        <mxCell id="i9Zo0SUnKm8AQRqL4wvI-1" value="Aplicar criterio filtrando opciones por dia libre" style="whiteSpace=wrap;html=1;shape=mxgraph.basic.document;fillColor=#e1d5e7;strokeColor=#9673a6;fontSize=18;aspect=fixed;" parent="y5e8XM1z7742Hf_tN0Tg-1" vertex="1">
          <mxGeometry x="280" y="800" width="120" height="120" as="geometry" />
        </mxCell>
        <mxCell id="i9Zo0SUnKm8AQRqL4wvI-2" value="Utilizar horario del usuario para cruzar con eventos" style="whiteSpace=wrap;html=1;shape=mxgraph.basic.document;fillColor=#e1d5e7;strokeColor=#9673a6;fontSize=18;aspect=fixed;" parent="y5e8XM1z7742Hf_tN0Tg-1" vertex="1">
          <mxGeometry x="880" y="800" width="120" height="120" as="geometry" />
        </mxCell>
        <mxCell id="i9Zo0SUnKm8AQRqL4wvI-3" value="&lt;font style=&quot;font-size: 17px;&quot;&gt;Consultar horario seleccionado en el sistema&lt;/font&gt;" style="whiteSpace=wrap;html=1;shape=mxgraph.basic.document;fillColor=#e1d5e7;strokeColor=#9673a6;fontSize=18;aspect=fixed;" parent="y5e8XM1z7742Hf_tN0Tg-1" vertex="1">
          <mxGeometry x="280" y="500" width="120" height="120" as="geometry" />
        </mxCell>
        <mxCell id="rJpd8jT7eJXLiU6TAcxu-0" value="&lt;span style=&quot;font-size: 17px;&quot;&gt;Generar horarios&lt;/span&gt;" style="whiteSpace=wrap;html=1;shape=mxgraph.basic.document;fillColor=#e1d5e7;strokeColor=#9673a6;fontSize=18;aspect=fixed;" parent="y5e8XM1z7742Hf_tN0Tg-1" vertex="1">
          <mxGeometry x="280" y="240" width="120" height="120" as="geometry" />
        </mxCell>
        <mxCell id="rJpd8jT7eJXLiU6TAcxu-1" value="&lt;span style=&quot;font-size: 17px;&quot;&gt;Seleccionar horario para guardar&lt;br&gt;&lt;/span&gt;" style="whiteSpace=wrap;html=1;shape=mxgraph.basic.document;fillColor=#e1d5e7;strokeColor=#9673a6;fontSize=18;aspect=fixed;" parent="y5e8XM1z7742Hf_tN0Tg-1" vertex="1">
          <mxGeometry x="280" y="370" width="120" height="120" as="geometry" />
        </mxCell>
      </root>
    </mxGraphModel>
  </diagram>
  <diagram id="9aNNhmhyN62HrIHrjKHQ" name="Historias de Uso (Original)">
    <mxGraphModel dx="1180" dy="776" grid="1" gridSize="10" guides="1" tooltips="1" connect="1" arrows="1" fold="1" page="1" pageScale="1" pageWidth="1100" pageHeight="850" math="0" shadow="0">
      <root>
        <mxCell id="0" />
        <mxCell id="1" parent="0" />
        <mxCell id="t8_1-ebU8i6jJ-sEUwB1-2" value="Gestión de Horarios" style="whiteSpace=wrap;html=1;shape=mxgraph.basic.document;fillColor=#fff2cc;strokeColor=#d6b656;fontSize=24;aspect=fixed;" parent="1" vertex="1">
          <mxGeometry x="40" y="40" width="160" height="160" as="geometry" />
        </mxCell>
        <mxCell id="t8_1-ebU8i6jJ-sEUwB1-4" value="" style="shape=curlyBracket;whiteSpace=wrap;html=1;rounded=1;labelPosition=left;verticalLabelPosition=middle;align=right;verticalAlign=middle;" parent="1" vertex="1">
          <mxGeometry x="10" y="40" width="20" height="170" as="geometry" />
        </mxCell>
        <mxCell id="t8_1-ebU8i6jJ-sEUwB1-6" value="" style="shape=curlyBracket;whiteSpace=wrap;html=1;rounded=1;labelPosition=left;verticalLabelPosition=middle;align=right;verticalAlign=middle;" parent="1" vertex="1">
          <mxGeometry x="10" y="230" width="20" height="530" as="geometry" />
        </mxCell>
        <mxCell id="t8_1-ebU8i6jJ-sEUwB1-7" value="Gestion de Cruces" style="whiteSpace=wrap;html=1;shape=mxgraph.basic.document;fillColor=#fff2cc;strokeColor=#d6b656;fontSize=24;aspect=fixed;" parent="1" vertex="1">
          <mxGeometry x="920" y="40" width="160" height="160" as="geometry" />
        </mxCell>
        <mxCell id="t8_1-ebU8i6jJ-sEUwB1-8" value="Administrador de eventos" style="whiteSpace=wrap;html=1;shape=mxgraph.basic.document;fillColor=#fff2cc;strokeColor=#d6b656;fontSize=24;aspect=fixed;" parent="1" vertex="1">
          <mxGeometry x="680" y="40" width="160" height="160" as="geometry" />
        </mxCell>
        <mxCell id="t8_1-ebU8i6jJ-sEUwB1-10" value="Administrador&lt;br&gt;&amp;nbsp;de Organizaciones" style="whiteSpace=wrap;html=1;shape=mxgraph.basic.document;fillColor=#fff2cc;strokeColor=#d6b656;fontSize=24;aspect=fixed;" parent="1" vertex="1">
          <mxGeometry x="440" y="40" width="160" height="160" as="geometry" />
        </mxCell>
        <mxCell id="eGgmNoj6ydE-Wks7x4kA-1" value="Compartir en redes sociales con imgen" style="whiteSpace=wrap;html=1;shape=mxgraph.basic.document;fillColor=#e1d5e7;strokeColor=#9673a6;fontSize=24;aspect=fixed;" parent="1" vertex="1">
          <mxGeometry x="210" y="800" width="160" height="160" as="geometry" />
        </mxCell>
        <mxCell id="obo2S_S6gPnHcl40foJI-1" value="CRUD de Horas" style="whiteSpace=wrap;html=1;shape=mxgraph.basic.document;fillColor=#e1d5e7;strokeColor=#9673a6;fontSize=24;aspect=fixed;" parent="1" vertex="1">
          <mxGeometry x="40" y="580" width="160" height="160" as="geometry" />
        </mxCell>
        <mxCell id="obo2S_S6gPnHcl40foJI-2" value="CRUD de secciones" style="whiteSpace=wrap;html=1;shape=mxgraph.basic.document;fillColor=#e1d5e7;strokeColor=#9673a6;fontSize=24;aspect=fixed;" parent="1" vertex="1">
          <mxGeometry x="40" y="410" width="160" height="160" as="geometry" />
        </mxCell>
        <mxCell id="obo2S_S6gPnHcl40foJI-4" value="Intersectar contra eventos" style="whiteSpace=wrap;html=1;shape=mxgraph.basic.document;fillColor=#e1d5e7;strokeColor=#9673a6;fontSize=24;aspect=fixed;" parent="1" vertex="1">
          <mxGeometry x="920" y="581" width="160" height="160" as="geometry" />
        </mxCell>
        <mxCell id="obo2S_S6gPnHcl40foJI-6" value="Comparar con evento seleccionado" style="whiteSpace=wrap;html=1;shape=mxgraph.basic.document;fillColor=#e1d5e7;strokeColor=#9673a6;fontSize=24;aspect=fixed;" parent="1" vertex="1">
          <mxGeometry x="920" y="980" width="160" height="160" as="geometry" />
        </mxCell>
        <mxCell id="obo2S_S6gPnHcl40foJI-7" value="Filtrar horarios generados por Horas libres" style="whiteSpace=wrap;html=1;shape=mxgraph.basic.document;fillColor=#e1d5e7;strokeColor=#9673a6;fontSize=24;aspect=fixed;" parent="1" vertex="1">
          <mxGeometry x="40" y="980" width="160" height="160" as="geometry" />
        </mxCell>
        <mxCell id="obo2S_S6gPnHcl40foJI-9" value="Gestionar Permisos" style="whiteSpace=wrap;html=1;shape=mxgraph.basic.document;fillColor=#e1d5e7;strokeColor=#9673a6;fontSize=24;aspect=fixed;" parent="1" vertex="1">
          <mxGeometry x="440" y="410" width="160" height="160" as="geometry" />
        </mxCell>
        <mxCell id="obo2S_S6gPnHcl40foJI-12" value="CRUD de Plantillas de Horarios" style="whiteSpace=wrap;html=1;shape=mxgraph.basic.document;fillColor=#e1d5e7;strokeColor=#9673a6;fontSize=24;aspect=fixed;" parent="1" vertex="1">
          <mxGeometry x="680" y="410" width="160" height="160" as="geometry" />
        </mxCell>
        <mxCell id="obo2S_S6gPnHcl40foJI-15" value="Exportar a travez de archivo" style="whiteSpace=wrap;html=1;shape=mxgraph.basic.document;fillColor=#e1d5e7;strokeColor=#9673a6;fontSize=24;aspect=fixed;" parent="1" vertex="1">
          <mxGeometry x="210" y="410" width="160" height="160" as="geometry" />
        </mxCell>
        <mxCell id="obo2S_S6gPnHcl40foJI-16" value="Importar a travez de archivo" style="whiteSpace=wrap;html=1;shape=mxgraph.basic.document;fillColor=#e1d5e7;strokeColor=#9673a6;fontSize=24;aspect=fixed;" parent="1" vertex="1">
          <mxGeometry x="210" y="240" width="160" height="160" as="geometry" />
        </mxCell>
        <mxCell id="1MG8ZGVlve6YVEVHFFVF-2" value="CRUD de Materias" style="whiteSpace=wrap;html=1;shape=mxgraph.basic.document;fillColor=#e1d5e7;strokeColor=#9673a6;fontSize=24;aspect=fixed;" parent="1" vertex="1">
          <mxGeometry x="40" y="241" width="160" height="160" as="geometry" />
        </mxCell>
        <mxCell id="1MG8ZGVlve6YVEVHFFVF-3" value="" style="shape=curlyBracket;whiteSpace=wrap;html=1;rounded=1;labelPosition=left;verticalLabelPosition=middle;align=right;verticalAlign=middle;" parent="1" vertex="1">
          <mxGeometry x="10" y="790" width="20" height="380" as="geometry" />
        </mxCell>
        <mxCell id="1MG8ZGVlve6YVEVHFFVF-5" value="" style="shape=curlyBracket;whiteSpace=wrap;html=1;rounded=1;labelPosition=left;verticalLabelPosition=middle;align=right;verticalAlign=middle;" parent="1" vertex="1">
          <mxGeometry x="10" y="1190" width="20" height="180" as="geometry" />
        </mxCell>
        <mxCell id="1MG8ZGVlve6YVEVHFFVF-7" value="Compratir en redes sociales a travez de link" style="whiteSpace=wrap;html=1;shape=mxgraph.basic.document;fillColor=#e1d5e7;strokeColor=#9673a6;fontSize=24;aspect=fixed;" parent="1" vertex="1">
          <mxGeometry x="210" y="1200" width="160" height="160" as="geometry" />
        </mxCell>
        <mxCell id="1MG8ZGVlve6YVEVHFFVF-9" value="Cruce de horas libres" style="whiteSpace=wrap;html=1;shape=mxgraph.basic.document;fillColor=#e1d5e7;strokeColor=#9673a6;fontSize=24;aspect=fixed;" parent="1" vertex="1">
          <mxGeometry x="920" y="240" width="160" height="160" as="geometry" />
        </mxCell>
        <mxCell id="1MG8ZGVlve6YVEVHFFVF-10" value="Comparar un horario con otros horarios" style="whiteSpace=wrap;html=1;shape=mxgraph.basic.document;fillColor=#e1d5e7;strokeColor=#9673a6;fontSize=24;aspect=fixed;" parent="1" vertex="1">
          <mxGeometry x="920" y="800" width="160" height="160" as="geometry" />
        </mxCell>
        <mxCell id="E7N4QmS1XOumf0-BQx4V-1" value="Filtrar horarios generados por&lt;br&gt;Día libre" style="whiteSpace=wrap;html=1;shape=mxgraph.basic.document;fillColor=#e1d5e7;strokeColor=#9673a6;fontSize=24;aspect=fixed;" parent="1" vertex="1">
          <mxGeometry x="40" y="800" width="160" height="160" as="geometry" />
        </mxCell>
        <mxCell id="E7N4QmS1XOumf0-BQx4V-2" value="Filtrarción de horarios generados por&lt;br&gt;sección específica" style="whiteSpace=wrap;html=1;shape=mxgraph.basic.document;fillColor=#e1d5e7;strokeColor=#9673a6;fontSize=24;aspect=fixed;" parent="1" vertex="1">
          <mxGeometry x="40" y="1200" width="160" height="160" as="geometry" />
        </mxCell>
        <mxCell id="E7N4QmS1XOumf0-BQx4V-4" value="Cruce de clases en común" style="whiteSpace=wrap;html=1;shape=mxgraph.basic.document;fillColor=#e1d5e7;strokeColor=#9673a6;fontSize=24;aspect=fixed;" parent="1" vertex="1">
          <mxGeometry x="920" y="410" width="160" height="160" as="geometry" />
        </mxCell>
        <mxCell id="63Ak2si3sjFUvy__0mnJ-1" value="CRUD de Organizaciones" style="whiteSpace=wrap;html=1;shape=mxgraph.basic.document;fillColor=#e1d5e7;strokeColor=#9673a6;fontSize=24;aspect=fixed;" parent="1" vertex="1">
          <mxGeometry x="440" y="240" width="160" height="160" as="geometry" />
        </mxCell>
        <mxCell id="63Ak2si3sjFUvy__0mnJ-3" value="CRUD de Eventos" style="whiteSpace=wrap;html=1;shape=mxgraph.basic.document;fillColor=#e1d5e7;strokeColor=#9673a6;fontSize=24;aspect=fixed;" parent="1" vertex="1">
          <mxGeometry x="680" y="240" width="160" height="160" as="geometry" />
        </mxCell>
        <mxCell id="63Ak2si3sjFUvy__0mnJ-4" value="Invitar a un envento" style="whiteSpace=wrap;html=1;shape=mxgraph.basic.document;fillColor=#e1d5e7;strokeColor=#9673a6;fontSize=24;aspect=fixed;" parent="1" vertex="1">
          <mxGeometry x="680" y="1200" width="160" height="160" as="geometry" />
        </mxCell>
        <mxCell id="D8fpV3FjYCANQT4E4hC6-1" value="&lt;div&gt;&amp;nbsp;Buscar por nombres&lt;/div&gt;" style="whiteSpace=wrap;html=1;shape=mxgraph.basic.document;fillColor=#e1d5e7;strokeColor=#9673a6;fontSize=24;aspect=fixed;" parent="1" vertex="1">
          <mxGeometry x="440" y="800" width="160" height="160" as="geometry" />
        </mxCell>
        <mxCell id="D8fpV3FjYCANQT4E4hC6-4" value="&lt;div&gt;Busqueda General&lt;br&gt;(Nombre/Tipo)&lt;/div&gt;" style="whiteSpace=wrap;html=1;shape=mxgraph.basic.document;fillColor=#e1d5e7;strokeColor=#9673a6;fontSize=24;aspect=fixed;" parent="1" vertex="1">
          <mxGeometry x="680" y="800" width="160" height="160" as="geometry" />
        </mxCell>
        <mxCell id="D8fpV3FjYCANQT4E4hC6-5" value="Busqueda Específica&lt;br&gt;(Fecha)" style="whiteSpace=wrap;html=1;shape=mxgraph.basic.document;fillColor=#e1d5e7;strokeColor=#9673a6;fontSize=24;aspect=fixed;" parent="1" vertex="1">
          <mxGeometry x="680" y="980" width="160" height="160" as="geometry" />
        </mxCell>
      </root>
    </mxGraphModel>
  </diagram>
  <diagram name="Diagrama de Casos de Uso Inicial" id="HsP7W9t5qMHdkkK8iFLy">
    <mxGraphModel dx="1180" dy="776" grid="1" gridSize="10" guides="1" tooltips="1" connect="1" arrows="1" fold="1" page="1" pageScale="1" pageWidth="850" pageHeight="1100" math="0" shadow="0">
      <root>
        <mxCell id="I0X0cvlkRRcrZA-TRV5I-0" />
        <mxCell id="I0X0cvlkRRcrZA-TRV5I-1" parent="I0X0cvlkRRcrZA-TRV5I-0" />
        <mxCell id="I0X0cvlkRRcrZA-TRV5I-2" value="Diagrama de Casos de uso Inicial Sistema Horarios ++" style="shape=umlFrame;whiteSpace=wrap;html=1;pointerEvents=0;recursiveResize=0;container=1;collapsible=0;width=190;height=30;" parent="I0X0cvlkRRcrZA-TRV5I-1" vertex="1">
          <mxGeometry width="850" height="1100" as="geometry" />
        </mxCell>
        <mxCell id="I0X0cvlkRRcrZA-TRV5I-3" value="" style="html=1;whiteSpace=wrap;" parent="I0X0cvlkRRcrZA-TRV5I-2" vertex="1">
          <mxGeometry x="190" y="195" width="470" height="710" as="geometry" />
        </mxCell>
        <mxCell id="I0X0cvlkRRcrZA-TRV5I-4" style="rounded=0;orthogonalLoop=1;jettySize=auto;html=1;endArrow=none;endFill=0;" parent="I0X0cvlkRRcrZA-TRV5I-2" source="I0X0cvlkRRcrZA-TRV5I-7" target="I0X0cvlkRRcrZA-TRV5I-11" edge="1">
          <mxGeometry relative="1" as="geometry" />
        </mxCell>
        <mxCell id="I0X0cvlkRRcrZA-TRV5I-5" style="rounded=0;orthogonalLoop=1;jettySize=auto;html=1;endArrow=none;endFill=0;" parent="I0X0cvlkRRcrZA-TRV5I-2" source="I0X0cvlkRRcrZA-TRV5I-7" target="I0X0cvlkRRcrZA-TRV5I-8" edge="1">
          <mxGeometry relative="1" as="geometry" />
        </mxCell>
        <mxCell id="I0X0cvlkRRcrZA-TRV5I-6" style="rounded=0;orthogonalLoop=1;jettySize=auto;html=1;endArrow=none;endFill=0;" parent="I0X0cvlkRRcrZA-TRV5I-2" source="I0X0cvlkRRcrZA-TRV5I-7" target="I0X0cvlkRRcrZA-TRV5I-12" edge="1">
          <mxGeometry relative="1" as="geometry" />
        </mxCell>
        <mxCell id="SAh1eqTeachIOVKx3L3e-2" style="edgeStyle=none;html=1;endArrow=none;endFill=0;" parent="I0X0cvlkRRcrZA-TRV5I-2" source="I0X0cvlkRRcrZA-TRV5I-7" target="I0X0cvlkRRcrZA-TRV5I-15" edge="1">
          <mxGeometry relative="1" as="geometry" />
        </mxCell>
        <mxCell id="BVCuNL01tnf3OkFY9512-1" style="edgeStyle=none;curved=1;rounded=0;orthogonalLoop=1;jettySize=auto;html=1;fontSize=12;startSize=8;endSize=8;endArrow=none;endFill=0;" parent="I0X0cvlkRRcrZA-TRV5I-2" source="I0X0cvlkRRcrZA-TRV5I-7" target="BVCuNL01tnf3OkFY9512-0" edge="1">
          <mxGeometry relative="1" as="geometry" />
        </mxCell>
        <mxCell id="I0X0cvlkRRcrZA-TRV5I-7" value="Estudiante" style="shape=umlActor;verticalLabelPosition=bottom;verticalAlign=top;html=1;" parent="I0X0cvlkRRcrZA-TRV5I-2" vertex="1">
          <mxGeometry x="40" y="520" width="30" height="60" as="geometry" />
        </mxCell>
        <mxCell id="I0X0cvlkRRcrZA-TRV5I-8" value="Gestionar Horarios" style="ellipse;whiteSpace=wrap;html=1;" parent="I0X0cvlkRRcrZA-TRV5I-2" vertex="1">
          <mxGeometry x="470" y="510" width="140" height="70" as="geometry" />
        </mxCell>
        <mxCell id="I0X0cvlkRRcrZA-TRV5I-11" value="Generar Horarios" style="ellipse;whiteSpace=wrap;html=1;" parent="I0X0cvlkRRcrZA-TRV5I-2" vertex="1">
          <mxGeometry x="210" y="230" width="140" height="70" as="geometry" />
        </mxCell>
        <mxCell id="I0X0cvlkRRcrZA-TRV5I-15" value="Filtrar Horarios Generados" style="ellipse;whiteSpace=wrap;html=1;" parent="I0X0cvlkRRcrZA-TRV5I-2" vertex="1">
          <mxGeometry x="355" y="340" width="140" height="70" as="geometry" />
        </mxCell>
        <mxCell id="BVCuNL01tnf3OkFY9512-0" value="Comparar Horarios" style="ellipse;html=1;whiteSpace=wrap;" parent="I0X0cvlkRRcrZA-TRV5I-2" vertex="1">
          <mxGeometry x="355" y="650" width="140" height="60" as="geometry" />
        </mxCell>
        <mxCell id="I0X0cvlkRRcrZA-TRV5I-12" value="Exportar, Importar&lt;div&gt;Y Compartir Horarios&lt;/div&gt;" style="ellipse;whiteSpace=wrap;html=1;" parent="I0X0cvlkRRcrZA-TRV5I-2" vertex="1">
          <mxGeometry x="210" y="770" width="140" height="70" as="geometry" />
        </mxCell>
      </root>
    </mxGraphModel>
  </diagram>
  <diagram id="RKEmTo3Yu7DPHAgLdHgr" name="Copy of Diagrama de Casos de Uso Inicial">
    <mxGraphModel dx="2030" dy="776" grid="1" gridSize="10" guides="1" tooltips="1" connect="1" arrows="1" fold="1" page="1" pageScale="1" pageWidth="850" pageHeight="1100" math="0" shadow="0">
      <root>
        <mxCell id="0" />
        <mxCell id="1" parent="0" />
        <mxCell id="Pq6DdWVmZBTMw3so4L5x-1" value="Sistema Horarios ++" style="shape=umlFrame;whiteSpace=wrap;html=1;pointerEvents=0;recursiveResize=0;container=1;collapsible=0;width=160;" parent="1" vertex="1">
          <mxGeometry x="-850" width="850" height="1100" as="geometry" />
        </mxCell>
        <mxCell id="Pq6DdWVmZBTMw3so4L5x-4" value="" style="html=1;whiteSpace=wrap;" parent="Pq6DdWVmZBTMw3so4L5x-1" vertex="1">
          <mxGeometry x="160" y="90" width="520" height="710" as="geometry" />
        </mxCell>
        <mxCell id="Pq6DdWVmZBTMw3so4L5x-19" style="rounded=0;orthogonalLoop=1;jettySize=auto;html=1;entryX=0;entryY=0.5;entryDx=0;entryDy=0;endArrow=none;endFill=0;" parent="Pq6DdWVmZBTMw3so4L5x-1" source="Pq6DdWVmZBTMw3so4L5x-5" target="Pq6DdWVmZBTMw3so4L5x-12" edge="1">
          <mxGeometry relative="1" as="geometry" />
        </mxCell>
        <mxCell id="Pq6DdWVmZBTMw3so4L5x-20" style="rounded=0;orthogonalLoop=1;jettySize=auto;html=1;endArrow=none;endFill=0;" parent="Pq6DdWVmZBTMw3so4L5x-1" source="Pq6DdWVmZBTMw3so4L5x-5" target="Pq6DdWVmZBTMw3so4L5x-9" edge="1">
          <mxGeometry relative="1" as="geometry" />
        </mxCell>
        <mxCell id="Pq6DdWVmZBTMw3so4L5x-24" style="rounded=0;orthogonalLoop=1;jettySize=auto;html=1;endArrow=none;endFill=0;" parent="Pq6DdWVmZBTMw3so4L5x-1" source="Pq6DdWVmZBTMw3so4L5x-5" target="Pq6DdWVmZBTMw3so4L5x-13" edge="1">
          <mxGeometry relative="1" as="geometry" />
        </mxCell>
        <mxCell id="Pq6DdWVmZBTMw3so4L5x-5" value="Estudiante" style="shape=umlActor;verticalLabelPosition=bottom;verticalAlign=top;html=1;" parent="Pq6DdWVmZBTMw3so4L5x-1" vertex="1">
          <mxGeometry x="40" y="380" width="30" height="60" as="geometry" />
        </mxCell>
        <mxCell id="Pq6DdWVmZBTMw3so4L5x-9" value="Gestionar Materias" style="ellipse;whiteSpace=wrap;html=1;" parent="Pq6DdWVmZBTMw3so4L5x-1" vertex="1">
          <mxGeometry x="260" y="250" width="140" height="70" as="geometry" />
        </mxCell>
        <mxCell id="Pq6DdWVmZBTMw3so4L5x-11" value="Gestionar Horas" style="ellipse;whiteSpace=wrap;html=1;" parent="Pq6DdWVmZBTMw3so4L5x-1" vertex="1">
          <mxGeometry x="510" y="500" width="140" height="70" as="geometry" />
        </mxCell>
        <mxCell id="Pq6DdWVmZBTMw3so4L5x-10" value="Gestionar secciones" style="ellipse;whiteSpace=wrap;html=1;" parent="Pq6DdWVmZBTMw3so4L5x-1" vertex="1">
          <mxGeometry x="370" y="375" width="140" height="70" as="geometry" />
        </mxCell>
        <mxCell id="Pq6DdWVmZBTMw3so4L5x-12" value="Generar Horario" style="ellipse;whiteSpace=wrap;html=1;" parent="Pq6DdWVmZBTMw3so4L5x-1" vertex="1">
          <mxGeometry x="200" y="110" width="140" height="70" as="geometry" />
        </mxCell>
        <mxCell id="Pq6DdWVmZBTMw3so4L5x-13" value="Exportar/Importar&amp;nbsp; Horarios" style="ellipse;whiteSpace=wrap;html=1;" parent="Pq6DdWVmZBTMw3so4L5x-1" vertex="1">
          <mxGeometry x="250" y="610" width="140" height="70" as="geometry" />
        </mxCell>
        <mxCell id="Pq6DdWVmZBTMw3so4L5x-17" style="edgeStyle=orthogonalEdgeStyle;rounded=0;orthogonalLoop=1;jettySize=auto;html=1;entryX=1;entryY=0.5;entryDx=0;entryDy=0;dashed=1;endArrow=openThin;endFill=0;" parent="Pq6DdWVmZBTMw3so4L5x-1" source="Pq6DdWVmZBTMw3so4L5x-15" target="Pq6DdWVmZBTMw3so4L5x-12" edge="1">
          <mxGeometry relative="1" as="geometry" />
        </mxCell>
        <mxCell id="Pq6DdWVmZBTMw3so4L5x-18" value="&amp;lt;&amp;lt;Extend&amp;gt;&amp;gt;" style="edgeLabel;html=1;align=center;verticalAlign=middle;resizable=0;points=[];" parent="Pq6DdWVmZBTMw3so4L5x-17" vertex="1" connectable="0">
          <mxGeometry x="-0.2222" y="1" relative="1" as="geometry">
            <mxPoint x="-5" y="-16" as="offset" />
          </mxGeometry>
        </mxCell>
        <mxCell id="Pq6DdWVmZBTMw3so4L5x-15" value="Filtrar Horarios Generados" style="ellipse;whiteSpace=wrap;html=1;" parent="Pq6DdWVmZBTMw3so4L5x-1" vertex="1">
          <mxGeometry x="450" y="110" width="140" height="70" as="geometry" />
        </mxCell>
        <mxCell id="Pq6DdWVmZBTMw3so4L5x-22" value="&amp;lt;&amp;lt;include&amp;gt;&amp;gt;" style="html=1;verticalAlign=bottom;labelBackgroundColor=none;endArrow=open;endFill=0;dashed=1;rounded=0;" parent="Pq6DdWVmZBTMw3so4L5x-1" source="Pq6DdWVmZBTMw3so4L5x-9" target="Pq6DdWVmZBTMw3so4L5x-10" edge="1">
          <mxGeometry x="0.6159" y="25" width="160" relative="1" as="geometry">
            <mxPoint x="350" y="440" as="sourcePoint" />
            <mxPoint x="450" y="360" as="targetPoint" />
            <mxPoint x="-1" as="offset" />
          </mxGeometry>
        </mxCell>
        <mxCell id="Pq6DdWVmZBTMw3so4L5x-23" value="&amp;lt;&amp;lt;include&amp;gt;&amp;gt;" style="html=1;verticalAlign=bottom;labelBackgroundColor=none;endArrow=open;endFill=0;dashed=1;rounded=0;" parent="Pq6DdWVmZBTMw3so4L5x-1" source="Pq6DdWVmZBTMw3so4L5x-10" target="Pq6DdWVmZBTMw3so4L5x-11" edge="1">
          <mxGeometry x="0.5708" y="14" width="160" relative="1" as="geometry">
            <mxPoint x="350" y="440" as="sourcePoint" />
            <mxPoint x="510" y="440" as="targetPoint" />
            <mxPoint x="1" as="offset" />
          </mxGeometry>
        </mxCell>
      </root>
    </mxGraphModel>
  </diagram>
  <diagram name="Diagrama de Casos de Uso" id="KVlCtD9a52mKzq-og5ys">
    <mxGraphModel dx="1180" dy="776" grid="1" gridSize="10" guides="1" tooltips="1" connect="1" arrows="1" fold="1" page="1" pageScale="1" pageWidth="850" pageHeight="1100" math="0" shadow="0">
      <root>
        <mxCell id="-TISIextF2IzIVQNqNVI-0" />
        <mxCell id="-TISIextF2IzIVQNqNVI-1" parent="-TISIextF2IzIVQNqNVI-0" />
        <mxCell id="-TISIextF2IzIVQNqNVI-2" value="Sistema Horarios ++" style="shape=umlFrame;whiteSpace=wrap;html=1;pointerEvents=0;recursiveResize=0;container=1;collapsible=0;width=160;" parent="-TISIextF2IzIVQNqNVI-1" vertex="1">
          <mxGeometry width="850" height="1100" as="geometry" />
        </mxCell>
        <mxCell id="-TISIextF2IzIVQNqNVI-3" value="" style="html=1;whiteSpace=wrap;" parent="-TISIextF2IzIVQNqNVI-2" vertex="1">
          <mxGeometry x="165" y="195" width="520" height="710" as="geometry" />
        </mxCell>
        <mxCell id="-TISIextF2IzIVQNqNVI-7" value="Estudiante" style="shape=umlActor;verticalLabelPosition=bottom;verticalAlign=top;html=1;" parent="-TISIextF2IzIVQNqNVI-2" vertex="1">
          <mxGeometry x="50" y="520" width="30" height="60" as="geometry" />
        </mxCell>
        <mxCell id="-TISIextF2IzIVQNqNVI-8" value="Gestionar Materias" style="ellipse;whiteSpace=wrap;html=1;" parent="-TISIextF2IzIVQNqNVI-2" vertex="1">
          <mxGeometry x="355" y="520" width="140" height="70" as="geometry" />
        </mxCell>
        <mxCell id="-TISIextF2IzIVQNqNVI-9" value="Gestionar Horas" style="ellipse;whiteSpace=wrap;html=1;" parent="-TISIextF2IzIVQNqNVI-2" vertex="1">
          <mxGeometry x="520" y="810" width="140" height="70" as="geometry" />
        </mxCell>
        <mxCell id="-TISIextF2IzIVQNqNVI-10" value="Gestionar secciones" style="ellipse;whiteSpace=wrap;html=1;" parent="-TISIextF2IzIVQNqNVI-2" vertex="1">
          <mxGeometry x="355" y="680" width="140" height="70" as="geometry" />
        </mxCell>
        <mxCell id="-TISIextF2IzIVQNqNVI-11" value="Generar Horario" style="ellipse;whiteSpace=wrap;html=1;" parent="-TISIextF2IzIVQNqNVI-2" vertex="1">
          <mxGeometry x="450" y="370" width="140" height="70" as="geometry" />
        </mxCell>
        <mxCell id="-TISIextF2IzIVQNqNVI-12" value="Exportar Horarios" style="ellipse;whiteSpace=wrap;html=1;" parent="-TISIextF2IzIVQNqNVI-2" vertex="1">
          <mxGeometry x="215" y="810" width="140" height="70" as="geometry" />
        </mxCell>
        <mxCell id="-TISIextF2IzIVQNqNVI-15" value="Filtrar Horarios Generados" style="ellipse;whiteSpace=wrap;html=1;" parent="-TISIextF2IzIVQNqNVI-2" vertex="1">
          <mxGeometry x="520" y="515" width="140" height="70" as="geometry" />
        </mxCell>
        <mxCell id="-TISIextF2IzIVQNqNVI-16" value="&amp;lt;&amp;lt;include&amp;gt;&amp;gt;" style="html=1;verticalAlign=bottom;labelBackgroundColor=none;endArrow=open;endFill=0;dashed=1;rounded=0;" parent="-TISIextF2IzIVQNqNVI-2" source="-TISIextF2IzIVQNqNVI-8" target="-TISIextF2IzIVQNqNVI-10" edge="1">
          <mxGeometry x="0.1111" y="35" width="160" relative="1" as="geometry">
            <mxPoint x="350" y="440" as="sourcePoint" />
            <mxPoint x="450" y="360" as="targetPoint" />
            <mxPoint as="offset" />
          </mxGeometry>
        </mxCell>
        <mxCell id="-TISIextF2IzIVQNqNVI-17" value="&amp;lt;&amp;lt;include&amp;gt;&amp;gt;" style="html=1;verticalAlign=bottom;labelBackgroundColor=none;endArrow=open;endFill=0;dashed=1;rounded=0;" parent="-TISIextF2IzIVQNqNVI-2" source="-TISIextF2IzIVQNqNVI-10" target="-TISIextF2IzIVQNqNVI-9" edge="1">
          <mxGeometry x="0.5708" y="14" width="160" relative="1" as="geometry">
            <mxPoint x="350" y="440" as="sourcePoint" />
            <mxPoint x="510" y="440" as="targetPoint" />
            <mxPoint x="1" as="offset" />
          </mxGeometry>
        </mxCell>
        <mxCell id="vlKaYnTChIreeScSk5W9-0" value="Importar&amp;nbsp; Horarios" style="ellipse;whiteSpace=wrap;html=1;" parent="-TISIextF2IzIVQNqNVI-2" vertex="1">
          <mxGeometry x="355" y="220" width="140" height="70" as="geometry" />
        </mxCell>
        <mxCell id="vlKaYnTChIreeScSk5W9-2" value="&amp;lt;&amp;lt;extend&amp;gt;&amp;gt;" style="html=1;verticalAlign=bottom;labelBackgroundColor=none;endArrow=open;endFill=0;dashed=1;" parent="-TISIextF2IzIVQNqNVI-2" source="-TISIextF2IzIVQNqNVI-15" target="-TISIextF2IzIVQNqNVI-11" edge="1">
          <mxGeometry x="-0.2003" y="-22" width="160" relative="1" as="geometry">
            <mxPoint x="370" y="460" as="sourcePoint" />
            <mxPoint x="530" y="460" as="targetPoint" />
            <mxPoint as="offset" />
          </mxGeometry>
        </mxCell>
        <mxCell id="vlKaYnTChIreeScSk5W9-3" value="&amp;lt;&amp;lt;extend&amp;gt;&amp;gt;" style="edgeStyle=none;html=1;startArrow=open;endArrow=none;startSize=12;verticalAlign=bottom;dashed=1;labelBackgroundColor=none;" parent="-TISIextF2IzIVQNqNVI-2" source="vlKaYnTChIreeScSk5W9-0" target="-TISIextF2IzIVQNqNVI-11" edge="1">
          <mxGeometry x="0.2868" y="19" width="160" relative="1" as="geometry">
            <mxPoint x="530" y="460" as="sourcePoint" />
            <mxPoint x="370" y="460" as="targetPoint" />
            <mxPoint as="offset" />
          </mxGeometry>
        </mxCell>
        <mxCell id="V9sFXI8BSXSjzPWwlwCx-2" value="" style="edgeStyle=none;html=1;endArrow=none;verticalAlign=bottom;" parent="-TISIextF2IzIVQNqNVI-2" source="-TISIextF2IzIVQNqNVI-7" target="-TISIextF2IzIVQNqNVI-12" edge="1">
          <mxGeometry width="160" relative="1" as="geometry">
            <mxPoint x="340" y="430" as="sourcePoint" />
            <mxPoint x="500" y="430" as="targetPoint" />
          </mxGeometry>
        </mxCell>
        <mxCell id="V9sFXI8BSXSjzPWwlwCx-1" value="" style="edgeStyle=none;html=1;endArrow=none;verticalAlign=bottom;" parent="-TISIextF2IzIVQNqNVI-2" source="-TISIextF2IzIVQNqNVI-7" target="-TISIextF2IzIVQNqNVI-11" edge="1">
          <mxGeometry width="160" relative="1" as="geometry">
            <mxPoint x="340" y="430" as="sourcePoint" />
            <mxPoint x="500" y="430" as="targetPoint" />
          </mxGeometry>
        </mxCell>
        <mxCell id="V9sFXI8BSXSjzPWwlwCx-0" value="" style="edgeStyle=none;html=1;endArrow=none;verticalAlign=bottom;" parent="-TISIextF2IzIVQNqNVI-2" source="-TISIextF2IzIVQNqNVI-7" target="-TISIextF2IzIVQNqNVI-8" edge="1">
          <mxGeometry width="160" relative="1" as="geometry">
            <mxPoint x="340" y="430" as="sourcePoint" />
            <mxPoint x="500" y="430" as="targetPoint" />
          </mxGeometry>
        </mxCell>
        <mxCell id="V9sFXI8BSXSjzPWwlwCx-5" value="Comparar Horarios" style="ellipse;whiteSpace=wrap;html=1;" parent="-TISIextF2IzIVQNqNVI-2" vertex="1">
          <mxGeometry x="259" y="370" width="140" height="70" as="geometry" />
        </mxCell>
        <mxCell id="V9sFXI8BSXSjzPWwlwCx-4" value="" style="edgeStyle=none;html=1;endArrow=none;verticalAlign=bottom;" parent="-TISIextF2IzIVQNqNVI-2" source="-TISIextF2IzIVQNqNVI-7" target="V9sFXI8BSXSjzPWwlwCx-5" edge="1">
          <mxGeometry width="160" relative="1" as="geometry">
            <mxPoint x="120" y="250" as="sourcePoint" />
            <mxPoint x="280" y="250" as="targetPoint" />
          </mxGeometry>
        </mxCell>
        <mxCell id="V9sFXI8BSXSjzPWwlwCx-7" value="&amp;lt;&amp;lt;extend&amp;gt;&amp;gt;" style="edgeStyle=none;html=1;startArrow=open;endArrow=none;startSize=12;verticalAlign=bottom;dashed=1;labelBackgroundColor=none;" parent="-TISIextF2IzIVQNqNVI-2" source="vlKaYnTChIreeScSk5W9-0" target="V9sFXI8BSXSjzPWwlwCx-5" edge="1">
          <mxGeometry x="0.1892" y="26" width="160" relative="1" as="geometry">
            <mxPoint x="480" y="400" as="sourcePoint" />
            <mxPoint x="320" y="400" as="targetPoint" />
            <mxPoint as="offset" />
          </mxGeometry>
        </mxCell>
        <mxCell id="hmHCpGfY8CQPeW6xNCa--0" value="&amp;lt;&amp;lt;extend&amp;gt;&amp;gt;" style="edgeStyle=none;html=1;startArrow=open;endArrow=none;startSize=12;verticalAlign=bottom;dashed=1;labelBackgroundColor=none;" parent="-TISIextF2IzIVQNqNVI-2" source="-TISIextF2IzIVQNqNVI-8" target="V9sFXI8BSXSjzPWwlwCx-5" edge="1">
          <mxGeometry x="-0.3333" y="-20" width="160" relative="1" as="geometry">
            <mxPoint x="500" y="420" as="sourcePoint" />
            <mxPoint x="340" y="420" as="targetPoint" />
            <mxPoint as="offset" />
          </mxGeometry>
        </mxCell>
        <mxCell id="hmHCpGfY8CQPeW6xNCa--1" value="&amp;lt;&amp;lt;extend&amp;gt;&amp;gt;" style="edgeStyle=none;html=1;startArrow=open;endArrow=none;startSize=12;verticalAlign=bottom;dashed=1;labelBackgroundColor=none;" parent="-TISIextF2IzIVQNqNVI-2" source="-TISIextF2IzIVQNqNVI-8" target="-TISIextF2IzIVQNqNVI-11" edge="1">
          <mxGeometry x="-0.1489" y="-34" width="160" relative="1" as="geometry">
            <mxPoint x="280" y="470" as="sourcePoint" />
            <mxPoint x="280" y="410" as="targetPoint" />
            <mxPoint y="1" as="offset" />
          </mxGeometry>
        </mxCell>
        <mxCell id="hmHCpGfY8CQPeW6xNCa--3" value="" style="edgeStyle=none;html=1;endArrow=none;verticalAlign=bottom;" parent="-TISIextF2IzIVQNqNVI-2" source="-TISIextF2IzIVQNqNVI-7" target="vlKaYnTChIreeScSk5W9-0" edge="1">
          <mxGeometry width="160" relative="1" as="geometry">
            <mxPoint x="100" y="429.1704651162791" as="sourcePoint" />
            <mxPoint x="235.4291308189081" y="400.8248330844147" as="targetPoint" />
          </mxGeometry>
        </mxCell>
      </root>
    </mxGraphModel>
  </diagram>
  <diagram name="Diagrama de Clases" id="6133507b-19e7-1e82-6fc7-422aa6c4b21f">
    <mxGraphModel dx="1109" dy="776" grid="1" gridSize="10" guides="1" tooltips="1" connect="1" arrows="1" fold="1" page="1" pageScale="1" pageWidth="1100" pageHeight="850" background="none" math="0" shadow="0">
      <root>
        <mxCell id="0" />
        <mxCell id="1" parent="0" />
        <mxCell id="b94bc138ca980ef-13" style="edgeStyle=orthogonalEdgeStyle;rounded=0;html=1;dashed=1;labelBackgroundColor=none;startArrow=none;startFill=0;startSize=8;endArrow=open;endFill=0;endSize=16;fontFamily=Verdana;fontSize=12;" parent="1" source="235556782a83e6d0-1" target="b94bc138ca980ef-1" edge="1">
          <mxGeometry relative="1" as="geometry">
            <Array as="points">
              <mxPoint x="115" y="336" />
            </Array>
          </mxGeometry>
        </mxCell>
        <mxCell id="235556782a83e6d0-1" value="Classname" style="swimlane;html=1;fontStyle=1;align=center;verticalAlign=top;childLayout=stackLayout;horizontal=1;startSize=26;horizontalStack=0;resizeParent=1;resizeLast=0;collapsible=1;marginBottom=0;swimlaneFillColor=#ffffff;rounded=0;shadow=0;comic=0;labelBackgroundColor=none;strokeWidth=1;fillColor=none;fontFamily=Verdana;fontSize=12" parent="1" vertex="1">
          <mxGeometry x="35" y="436" width="160" height="168" as="geometry" />
        </mxCell>
        <mxCell id="235556782a83e6d0-2" value="+ field: type" style="text;html=1;strokeColor=none;fillColor=none;align=left;verticalAlign=top;spacingLeft=4;spacingRight=4;whiteSpace=wrap;overflow=hidden;rotatable=0;points=[[0,0.5],[1,0.5]];portConstraint=eastwest;" parent="235556782a83e6d0-1" vertex="1">
          <mxGeometry y="26" width="160" height="26" as="geometry" />
        </mxCell>
        <mxCell id="235556782a83e6d0-3" value="+ field: type" style="text;html=1;strokeColor=none;fillColor=none;align=left;verticalAlign=top;spacingLeft=4;spacingRight=4;whiteSpace=wrap;overflow=hidden;rotatable=0;points=[[0,0.5],[1,0.5]];portConstraint=eastwest;" parent="235556782a83e6d0-1" vertex="1">
          <mxGeometry y="52" width="160" height="26" as="geometry" />
        </mxCell>
        <mxCell id="235556782a83e6d0-5" value="+ field: type" style="text;html=1;strokeColor=none;fillColor=none;align=left;verticalAlign=top;spacingLeft=4;spacingRight=4;whiteSpace=wrap;overflow=hidden;rotatable=0;points=[[0,0.5],[1,0.5]];portConstraint=eastwest;" parent="235556782a83e6d0-1" vertex="1">
          <mxGeometry y="78" width="160" height="26" as="geometry" />
        </mxCell>
        <mxCell id="235556782a83e6d0-6" value="" style="line;html=1;strokeWidth=1;fillColor=none;align=left;verticalAlign=middle;spacingTop=-1;spacingLeft=3;spacingRight=3;rotatable=0;labelPosition=right;points=[];portConstraint=eastwest;" parent="235556782a83e6d0-1" vertex="1">
          <mxGeometry y="104" width="160" height="8" as="geometry" />
        </mxCell>
        <mxCell id="235556782a83e6d0-7" value="+ method(type): type" style="text;html=1;strokeColor=none;fillColor=none;align=left;verticalAlign=top;spacingLeft=4;spacingRight=4;whiteSpace=wrap;overflow=hidden;rotatable=0;points=[[0,0.5],[1,0.5]];portConstraint=eastwest;" parent="235556782a83e6d0-1" vertex="1">
          <mxGeometry y="112" width="160" height="26" as="geometry" />
        </mxCell>
        <mxCell id="78961159f06e98e8-17" value="Classname" style="swimlane;html=1;fontStyle=1;align=center;verticalAlign=top;childLayout=stackLayout;horizontal=1;startSize=26;horizontalStack=0;resizeParent=1;resizeLast=0;collapsible=1;marginBottom=0;swimlaneFillColor=#ffffff;rounded=0;shadow=0;comic=0;labelBackgroundColor=none;strokeWidth=1;fillColor=none;fontFamily=Verdana;fontSize=12" parent="1" vertex="1">
          <mxGeometry x="35" y="132" width="160" height="118" as="geometry" />
        </mxCell>
        <mxCell id="78961159f06e98e8-23" value="+ field: type" style="text;html=1;strokeColor=none;fillColor=none;align=left;verticalAlign=top;spacingLeft=4;spacingRight=4;whiteSpace=wrap;overflow=hidden;rotatable=0;points=[[0,0.5],[1,0.5]];portConstraint=eastwest;" parent="78961159f06e98e8-17" vertex="1">
          <mxGeometry y="26" width="160" height="26" as="geometry" />
        </mxCell>
        <mxCell id="78961159f06e98e8-24" value="+ field: type" style="text;html=1;strokeColor=none;fillColor=none;align=left;verticalAlign=top;spacingLeft=4;spacingRight=4;whiteSpace=wrap;overflow=hidden;rotatable=0;points=[[0,0.5],[1,0.5]];portConstraint=eastwest;" parent="78961159f06e98e8-17" vertex="1">
          <mxGeometry y="52" width="160" height="26" as="geometry" />
        </mxCell>
        <mxCell id="78961159f06e98e8-19" value="" style="line;html=1;strokeWidth=1;fillColor=none;align=left;verticalAlign=middle;spacingTop=-1;spacingLeft=3;spacingRight=3;rotatable=0;labelPosition=right;points=[];portConstraint=eastwest;" parent="78961159f06e98e8-17" vertex="1">
          <mxGeometry y="78" width="160" height="8" as="geometry" />
        </mxCell>
        <mxCell id="78961159f06e98e8-27" value="+ method(type): type" style="text;html=1;strokeColor=none;fillColor=none;align=left;verticalAlign=top;spacingLeft=4;spacingRight=4;whiteSpace=wrap;overflow=hidden;rotatable=0;points=[[0,0.5],[1,0.5]];portConstraint=eastwest;" parent="78961159f06e98e8-17" vertex="1">
          <mxGeometry y="86" width="160" height="26" as="geometry" />
        </mxCell>
        <mxCell id="b94bc138ca980ef-7" style="edgeStyle=orthogonalEdgeStyle;rounded=0;html=1;labelBackgroundColor=none;startArrow=none;startFill=0;startSize=8;endArrow=open;endFill=0;endSize=16;fontFamily=Verdana;fontSize=12;" parent="1" source="78961159f06e98e8-43" target="b94bc138ca980ef-1" edge="1">
          <mxGeometry relative="1" as="geometry">
            <Array as="points">
              <mxPoint x="505" y="256" />
              <mxPoint x="505" y="256" />
            </Array>
          </mxGeometry>
        </mxCell>
        <mxCell id="b94bc138ca980ef-17" value="1..*" style="text;html=1;resizable=0;points=[];align=center;verticalAlign=middle;labelBackgroundColor=#ffffff;fontSize=12;fontFamily=Verdana" parent="b94bc138ca980ef-7" vertex="1" connectable="0">
          <mxGeometry x="0.8576" y="2" relative="1" as="geometry">
            <mxPoint x="-2" y="-22" as="offset" />
          </mxGeometry>
        </mxCell>
        <mxCell id="b94bc138ca980ef-18" value="1" style="text;html=1;resizable=0;points=[];align=center;verticalAlign=middle;labelBackgroundColor=#ffffff;fontSize=12;fontFamily=Verdana" parent="b94bc138ca980ef-7" vertex="1" connectable="0">
          <mxGeometry x="0.3629" y="152" relative="1" as="geometry">
            <mxPoint x="150" y="-164" as="offset" />
          </mxGeometry>
        </mxCell>
        <mxCell id="b94bc138ca980ef-8" style="edgeStyle=orthogonalEdgeStyle;rounded=0;html=1;labelBackgroundColor=none;startArrow=none;startFill=0;startSize=8;endArrow=none;endFill=0;endSize=16;fontFamily=Verdana;fontSize=12;" parent="1" source="78961159f06e98e8-43" target="78961159f06e98e8-17" edge="1">
          <mxGeometry relative="1" as="geometry">
            <Array as="points">
              <mxPoint x="565" y="191" />
              <mxPoint x="565" y="191" />
            </Array>
          </mxGeometry>
        </mxCell>
        <mxCell id="b94bc138ca980ef-15" value="0..1" style="text;html=1;resizable=0;points=[];align=center;verticalAlign=middle;labelBackgroundColor=#ffffff;fontSize=12;fontFamily=Verdana" parent="b94bc138ca980ef-8" vertex="1" connectable="0">
          <mxGeometry x="-0.5745" y="-86" relative="1" as="geometry">
            <mxPoint x="80" y="71" as="offset" />
          </mxGeometry>
        </mxCell>
        <mxCell id="b94bc138ca980ef-16" value="1" style="text;html=1;resizable=0;points=[];align=center;verticalAlign=middle;labelBackgroundColor=#ffffff;fontSize=12;fontFamily=Verdana" parent="b94bc138ca980ef-8" vertex="1" connectable="0">
          <mxGeometry x="0.8917" y="-1" relative="1" as="geometry">
            <mxPoint x="-15" y="-19" as="offset" />
          </mxGeometry>
        </mxCell>
        <mxCell id="78961159f06e98e8-43" value="Classname" style="swimlane;html=1;fontStyle=1;align=center;verticalAlign=top;childLayout=stackLayout;horizontal=1;startSize=26;horizontalStack=0;resizeParent=1;resizeLast=0;collapsible=1;marginBottom=0;swimlaneFillColor=#ffffff;rounded=0;shadow=0;comic=0;labelBackgroundColor=none;strokeWidth=1;fillColor=none;fontFamily=Verdana;fontSize=12" parent="1" vertex="1">
          <mxGeometry x="665" y="135.99999999999997" width="160" height="164" as="geometry" />
        </mxCell>
        <mxCell id="78961159f06e98e8-44" value="+ field: type" style="text;html=1;strokeColor=none;fillColor=none;align=left;verticalAlign=top;spacingLeft=4;spacingRight=4;whiteSpace=wrap;overflow=hidden;rotatable=0;points=[[0,0.5],[1,0.5]];portConstraint=eastwest;" parent="78961159f06e98e8-43" vertex="1">
          <mxGeometry y="26" width="160" height="26" as="geometry" />
        </mxCell>
        <mxCell id="78961159f06e98e8-45" value="+ field: type" style="text;html=1;strokeColor=none;fillColor=none;align=left;verticalAlign=top;spacingLeft=4;spacingRight=4;whiteSpace=wrap;overflow=hidden;rotatable=0;points=[[0,0.5],[1,0.5]];portConstraint=eastwest;" parent="78961159f06e98e8-43" vertex="1">
          <mxGeometry y="52" width="160" height="26" as="geometry" />
        </mxCell>
        <mxCell id="78961159f06e98e8-51" value="" style="line;html=1;strokeWidth=1;fillColor=none;align=left;verticalAlign=middle;spacingTop=-1;spacingLeft=3;spacingRight=3;rotatable=0;labelPosition=right;points=[];portConstraint=eastwest;" parent="78961159f06e98e8-43" vertex="1">
          <mxGeometry y="78" width="160" height="8" as="geometry" />
        </mxCell>
        <mxCell id="78961159f06e98e8-52" value="+ method(type): type" style="text;html=1;strokeColor=none;fillColor=none;align=left;verticalAlign=top;spacingLeft=4;spacingRight=4;whiteSpace=wrap;overflow=hidden;rotatable=0;points=[[0,0.5],[1,0.5]];portConstraint=eastwest;" parent="78961159f06e98e8-43" vertex="1">
          <mxGeometry y="86" width="160" height="26" as="geometry" />
        </mxCell>
        <mxCell id="b94bc138ca980ef-2" value="+ method(type): type" style="text;html=1;strokeColor=none;fillColor=none;align=left;verticalAlign=top;spacingLeft=4;spacingRight=4;whiteSpace=wrap;overflow=hidden;rotatable=0;points=[[0,0.5],[1,0.5]];portConstraint=eastwest;" parent="78961159f06e98e8-43" vertex="1">
          <mxGeometry y="112" width="160" height="26" as="geometry" />
        </mxCell>
        <mxCell id="b94bc138ca980ef-3" value="+ method(type): type" style="text;html=1;strokeColor=none;fillColor=none;align=left;verticalAlign=top;spacingLeft=4;spacingRight=4;whiteSpace=wrap;overflow=hidden;rotatable=0;points=[[0,0.5],[1,0.5]];portConstraint=eastwest;" parent="78961159f06e98e8-43" vertex="1">
          <mxGeometry y="138" width="160" height="26" as="geometry" />
        </mxCell>
        <mxCell id="b94bc138ca980ef-12" style="edgeStyle=orthogonalEdgeStyle;rounded=0;html=1;dashed=1;labelBackgroundColor=none;startArrow=none;startFill=0;startSize=8;endArrow=open;endFill=0;endSize=16;fontFamily=Verdana;fontSize=12;" parent="1" source="78961159f06e98e8-69" target="b94bc138ca980ef-1" edge="1">
          <mxGeometry relative="1" as="geometry" />
        </mxCell>
        <mxCell id="78961159f06e98e8-69" value="Classname" style="swimlane;html=1;fontStyle=1;align=center;verticalAlign=top;childLayout=stackLayout;horizontal=1;startSize=26;horizontalStack=0;resizeParent=1;resizeLast=0;collapsible=1;marginBottom=0;swimlaneFillColor=#ffffff;rounded=0;shadow=0;comic=0;labelBackgroundColor=none;strokeWidth=1;fillColor=none;fontFamily=Verdana;fontSize=12" parent="1" vertex="1">
          <mxGeometry x="255" y="436" width="160" height="92" as="geometry" />
        </mxCell>
        <mxCell id="78961159f06e98e8-70" value="+ field: type" style="text;html=1;strokeColor=none;fillColor=none;align=left;verticalAlign=top;spacingLeft=4;spacingRight=4;whiteSpace=wrap;overflow=hidden;rotatable=0;points=[[0,0.5],[1,0.5]];portConstraint=eastwest;" parent="78961159f06e98e8-69" vertex="1">
          <mxGeometry y="26" width="160" height="26" as="geometry" />
        </mxCell>
        <mxCell id="78961159f06e98e8-77" value="" style="line;html=1;strokeWidth=1;fillColor=none;align=left;verticalAlign=middle;spacingTop=-1;spacingLeft=3;spacingRight=3;rotatable=0;labelPosition=right;points=[];portConstraint=eastwest;" parent="78961159f06e98e8-69" vertex="1">
          <mxGeometry y="52" width="160" height="8" as="geometry" />
        </mxCell>
        <mxCell id="b94bc138ca980ef-9" style="edgeStyle=orthogonalEdgeStyle;rounded=0;html=1;labelBackgroundColor=none;startArrow=none;startFill=0;startSize=8;endArrow=diamondThin;endFill=0;endSize=16;fontFamily=Verdana;fontSize=12;" parent="1" source="78961159f06e98e8-82" target="78961159f06e98e8-43" edge="1">
          <mxGeometry relative="1" as="geometry" />
        </mxCell>
        <mxCell id="b94bc138ca980ef-19" value="1..*" style="text;html=1;resizable=0;points=[];align=center;verticalAlign=middle;labelBackgroundColor=#ffffff;fontSize=12;fontFamily=Verdana" parent="b94bc138ca980ef-9" vertex="1" connectable="0">
          <mxGeometry x="-0.8467" y="-1" relative="1" as="geometry">
            <mxPoint x="19" y="1" as="offset" />
          </mxGeometry>
        </mxCell>
        <mxCell id="b94bc138ca980ef-10" style="edgeStyle=orthogonalEdgeStyle;rounded=0;html=1;labelBackgroundColor=none;startArrow=none;startFill=0;startSize=8;endArrow=open;endFill=0;endSize=16;fontFamily=Verdana;fontSize=12;" parent="1" source="78961159f06e98e8-82" target="78961159f06e98e8-95" edge="1">
          <mxGeometry relative="1" as="geometry" />
        </mxCell>
        <mxCell id="b94bc138ca980ef-20" value="0..*" style="text;html=1;resizable=0;points=[];align=center;verticalAlign=middle;labelBackgroundColor=#ffffff;fontSize=12;fontFamily=Verdana" parent="b94bc138ca980ef-10" vertex="1" connectable="0">
          <mxGeometry x="-0.7895" relative="1" as="geometry">
            <mxPoint x="11" y="-10" as="offset" />
          </mxGeometry>
        </mxCell>
        <mxCell id="b94bc138ca980ef-21" value="1" style="text;html=1;resizable=0;points=[];align=center;verticalAlign=middle;labelBackgroundColor=#ffffff;fontSize=12;fontFamily=Verdana" parent="b94bc138ca980ef-10" vertex="1" connectable="0">
          <mxGeometry x="0.6999" y="1" relative="1" as="geometry">
            <mxPoint x="2" y="-12" as="offset" />
          </mxGeometry>
        </mxCell>
        <mxCell id="78961159f06e98e8-82" value="Classname" style="swimlane;html=1;fontStyle=1;align=center;verticalAlign=top;childLayout=stackLayout;horizontal=1;startSize=26;horizontalStack=0;resizeParent=1;resizeLast=0;collapsible=1;marginBottom=0;swimlaneFillColor=#ffffff;rounded=0;shadow=0;comic=0;labelBackgroundColor=none;strokeWidth=1;fillColor=none;fontFamily=Verdana;fontSize=12" parent="1" vertex="1">
          <mxGeometry x="665" y="435" width="160" height="142" as="geometry" />
        </mxCell>
        <mxCell id="78961159f06e98e8-84" value="+ field: type" style="text;html=1;strokeColor=none;fillColor=none;align=left;verticalAlign=top;spacingLeft=4;spacingRight=4;whiteSpace=wrap;overflow=hidden;rotatable=0;points=[[0,0.5],[1,0.5]];portConstraint=eastwest;" parent="78961159f06e98e8-82" vertex="1">
          <mxGeometry y="26" width="160" height="26" as="geometry" />
        </mxCell>
        <mxCell id="78961159f06e98e8-89" value="+ field: type" style="text;html=1;strokeColor=none;fillColor=none;align=left;verticalAlign=top;spacingLeft=4;spacingRight=4;whiteSpace=wrap;overflow=hidden;rotatable=0;points=[[0,0.5],[1,0.5]];portConstraint=eastwest;" parent="78961159f06e98e8-82" vertex="1">
          <mxGeometry y="52" width="160" height="26" as="geometry" />
        </mxCell>
        <mxCell id="78961159f06e98e8-90" value="" style="line;html=1;strokeWidth=1;fillColor=none;align=left;verticalAlign=middle;spacingTop=-1;spacingLeft=3;spacingRight=3;rotatable=0;labelPosition=right;points=[];portConstraint=eastwest;" parent="78961159f06e98e8-82" vertex="1">
          <mxGeometry y="78" width="160" height="8" as="geometry" />
        </mxCell>
        <mxCell id="78961159f06e98e8-94" value="+ method(type): type" style="text;html=1;strokeColor=none;fillColor=none;align=left;verticalAlign=top;spacingLeft=4;spacingRight=4;whiteSpace=wrap;overflow=hidden;rotatable=0;points=[[0,0.5],[1,0.5]];portConstraint=eastwest;" parent="78961159f06e98e8-82" vertex="1">
          <mxGeometry y="86" width="160" height="26" as="geometry" />
        </mxCell>
        <mxCell id="b94bc138ca980ef-4" value="+ method(type): type" style="text;html=1;strokeColor=none;fillColor=none;align=left;verticalAlign=top;spacingLeft=4;spacingRight=4;whiteSpace=wrap;overflow=hidden;rotatable=0;points=[[0,0.5],[1,0.5]];portConstraint=eastwest;" parent="78961159f06e98e8-82" vertex="1">
          <mxGeometry y="112" width="160" height="26" as="geometry" />
        </mxCell>
        <mxCell id="78961159f06e98e8-95" value="Classname" style="swimlane;html=1;fontStyle=1;align=center;verticalAlign=top;childLayout=stackLayout;horizontal=1;startSize=26;horizontalStack=0;resizeParent=1;resizeLast=0;collapsible=1;marginBottom=0;swimlaneFillColor=#ffffff;rounded=0;shadow=0;comic=0;labelBackgroundColor=none;strokeWidth=1;fillColor=none;fontFamily=Verdana;fontSize=12" parent="1" vertex="1">
          <mxGeometry x="905" y="435" width="160" height="141" as="geometry" />
        </mxCell>
        <mxCell id="78961159f06e98e8-96" value="+ field: type" style="text;html=1;strokeColor=none;fillColor=none;align=left;verticalAlign=top;spacingLeft=4;spacingRight=4;whiteSpace=wrap;overflow=hidden;rotatable=0;points=[[0,0.5],[1,0.5]];portConstraint=eastwest;" parent="78961159f06e98e8-95" vertex="1">
          <mxGeometry y="26" width="160" height="26" as="geometry" />
        </mxCell>
        <mxCell id="78961159f06e98e8-102" value="+ field: type" style="text;html=1;strokeColor=none;fillColor=none;align=left;verticalAlign=top;spacingLeft=4;spacingRight=4;whiteSpace=wrap;overflow=hidden;rotatable=0;points=[[0,0.5],[1,0.5]];portConstraint=eastwest;" parent="78961159f06e98e8-95" vertex="1">
          <mxGeometry y="52" width="160" height="26" as="geometry" />
        </mxCell>
        <mxCell id="78961159f06e98e8-103" value="" style="line;html=1;strokeWidth=1;fillColor=none;align=left;verticalAlign=middle;spacingTop=-1;spacingLeft=3;spacingRight=3;rotatable=0;labelPosition=right;points=[];portConstraint=eastwest;" parent="78961159f06e98e8-95" vertex="1">
          <mxGeometry y="78" width="160" height="8" as="geometry" />
        </mxCell>
        <mxCell id="78961159f06e98e8-104" value="+ method(type): type" style="text;html=1;strokeColor=none;fillColor=none;align=left;verticalAlign=top;spacingLeft=4;spacingRight=4;whiteSpace=wrap;overflow=hidden;rotatable=0;points=[[0,0.5],[1,0.5]];portConstraint=eastwest;" parent="78961159f06e98e8-95" vertex="1">
          <mxGeometry y="86" width="160" height="26" as="geometry" />
        </mxCell>
        <mxCell id="b94bc138ca980ef-5" value="+ method(type): type" style="text;html=1;strokeColor=none;fillColor=none;align=left;verticalAlign=top;spacingLeft=4;spacingRight=4;whiteSpace=wrap;overflow=hidden;rotatable=0;points=[[0,0.5],[1,0.5]];portConstraint=eastwest;" parent="78961159f06e98e8-95" vertex="1">
          <mxGeometry y="112" width="160" height="26" as="geometry" />
        </mxCell>
        <mxCell id="b94bc138ca980ef-11" style="edgeStyle=orthogonalEdgeStyle;rounded=0;html=1;dashed=1;labelBackgroundColor=none;startArrow=none;startFill=0;startSize=8;endArrow=block;endFill=0;endSize=16;fontFamily=Verdana;fontSize=12;" parent="1" source="78961159f06e98e8-108" target="b94bc138ca980ef-1" edge="1">
          <mxGeometry relative="1" as="geometry">
            <Array as="points">
              <mxPoint x="565" y="336" />
            </Array>
          </mxGeometry>
        </mxCell>
        <mxCell id="78961159f06e98e8-108" value="Classname" style="swimlane;html=1;fontStyle=1;align=center;verticalAlign=top;childLayout=stackLayout;horizontal=1;startSize=26;horizontalStack=0;resizeParent=1;resizeLast=0;collapsible=1;marginBottom=0;swimlaneFillColor=#ffffff;rounded=0;shadow=0;comic=0;labelBackgroundColor=none;strokeWidth=1;fillColor=none;fontFamily=Verdana;fontSize=12" parent="1" vertex="1">
          <mxGeometry x="485" y="436" width="160" height="119" as="geometry" />
        </mxCell>
        <mxCell id="78961159f06e98e8-109" value="+ field: type" style="text;html=1;strokeColor=none;fillColor=none;align=left;verticalAlign=top;spacingLeft=4;spacingRight=4;whiteSpace=wrap;overflow=hidden;rotatable=0;points=[[0,0.5],[1,0.5]];portConstraint=eastwest;" parent="78961159f06e98e8-108" vertex="1">
          <mxGeometry y="26" width="160" height="26" as="geometry" />
        </mxCell>
        <mxCell id="78961159f06e98e8-110" value="+ field: type" style="text;html=1;strokeColor=none;fillColor=none;align=left;verticalAlign=top;spacingLeft=4;spacingRight=4;whiteSpace=wrap;overflow=hidden;rotatable=0;points=[[0,0.5],[1,0.5]];portConstraint=eastwest;" parent="78961159f06e98e8-108" vertex="1">
          <mxGeometry y="52" width="160" height="26" as="geometry" />
        </mxCell>
        <mxCell id="78961159f06e98e8-116" value="" style="line;html=1;strokeWidth=1;fillColor=none;align=left;verticalAlign=middle;spacingTop=-1;spacingLeft=3;spacingRight=3;rotatable=0;labelPosition=right;points=[];portConstraint=eastwest;" parent="78961159f06e98e8-108" vertex="1">
          <mxGeometry y="78" width="160" height="8" as="geometry" />
        </mxCell>
        <mxCell id="78961159f06e98e8-117" value="+ method(type): type" style="text;html=1;strokeColor=none;fillColor=none;align=left;verticalAlign=top;spacingLeft=4;spacingRight=4;whiteSpace=wrap;overflow=hidden;rotatable=0;points=[[0,0.5],[1,0.5]];portConstraint=eastwest;" parent="78961159f06e98e8-108" vertex="1">
          <mxGeometry y="86" width="160" height="26" as="geometry" />
        </mxCell>
        <mxCell id="b94bc138ca980ef-1" value="&lt;p style=&quot;margin:0px;margin-top:4px;text-align:center;&quot;&gt;&lt;i&gt;&amp;lt;&amp;lt;Interface&amp;gt;&amp;gt;&lt;/i&gt;&lt;br/&gt;&lt;b&gt;Interface&lt;/b&gt;&lt;/p&gt;&lt;hr size=&quot;1&quot;/&gt;&lt;p style=&quot;margin:0px;margin-left:4px;&quot;&gt;+ field1: Type&lt;br/&gt;+ field2: Type&lt;/p&gt;&lt;hr size=&quot;1&quot;/&gt;&lt;p style=&quot;margin:0px;margin-left:4px;&quot;&gt;+ method1(Type): Type&lt;br/&gt;+ method2(Type, Type): Type&lt;/p&gt;" style="verticalAlign=top;align=left;overflow=fill;fontSize=12;fontFamily=Helvetica;html=1;rounded=0;shadow=0;comic=0;labelBackgroundColor=none;strokeWidth=1" parent="1" vertex="1">
          <mxGeometry x="240" y="226" width="190" height="140" as="geometry" />
        </mxCell>
      </root>
    </mxGraphModel>
  </diagram>
  <diagram id="EFBpk4GzAgz91b-1l1nQ" name="Diagrama de Actividades">
    <mxGraphModel dx="1109" dy="776" grid="1" gridSize="10" guides="1" tooltips="1" connect="1" arrows="1" fold="1" page="1" pageScale="1" pageWidth="690" pageHeight="980" math="0" shadow="0">
      <root>
        <mxCell id="0" />
        <mxCell id="1" parent="0" />
        <mxCell id="fhP5wiahUty-ULh5uXUc-1" value="Creación de Horario" style="swimlane;html=1;childLayout=stackLayout;startSize=20;rounded=0;shadow=0;comic=0;labelBackgroundColor=none;strokeWidth=1;fontFamily=Verdana;fontSize=12;align=center;" parent="1" vertex="1">
          <mxGeometry width="690" height="760" as="geometry">
            <mxRectangle y="330" width="70" height="30" as="alternateBounds" />
          </mxGeometry>
        </mxCell>
        <mxCell id="fhP5wiahUty-ULh5uXUc-2" value="Estudiante" style="swimlane;html=1;startSize=20;" parent="fhP5wiahUty-ULh5uXUc-1" vertex="1">
          <mxGeometry y="20" width="230" height="740" as="geometry" />
        </mxCell>
        <mxCell id="fhP5wiahUty-ULh5uXUc-5" value="Lenar Formulario" style="rounded=1;whiteSpace=wrap;html=1;shadow=0;comic=0;labelBackgroundColor=none;strokeWidth=1;fontFamily=Verdana;fontSize=12;align=center;arcSize=50;" parent="fhP5wiahUty-ULh5uXUc-2" vertex="1">
          <mxGeometry x="70" y="250" width="100" height="30" as="geometry" />
        </mxCell>
        <mxCell id="fhP5wiahUty-ULh5uXUc-29" value="" style="ellipse;whiteSpace=wrap;html=1;rounded=0;shadow=0;comic=0;labelBackgroundColor=none;strokeWidth=1;fillColor=#000000;fontFamily=Verdana;fontSize=12;align=center;" parent="fhP5wiahUty-ULh5uXUc-2" vertex="1">
          <mxGeometry x="100" y="30" width="40" height="40" as="geometry" />
        </mxCell>
        <mxCell id="fhP5wiahUty-ULh5uXUc-30" value="Accede al apartado de creación" style="rounded=1;whiteSpace=wrap;html=1;shadow=0;comic=0;labelBackgroundColor=none;strokeWidth=1;fontFamily=Verdana;fontSize=12;align=center;arcSize=50;" parent="fhP5wiahUty-ULh5uXUc-2" vertex="1">
          <mxGeometry x="55" y="90" width="130" height="30" as="geometry" />
        </mxCell>
        <mxCell id="fhP5wiahUty-ULh5uXUc-28" style="edgeStyle=orthogonalEdgeStyle;rounded=0;html=1;labelBackgroundColor=none;startArrow=none;startFill=0;startSize=5;endArrow=openThin;endFill=0;endSize=5;jettySize=auto;orthogonalLoop=1;strokeWidth=1;fontFamily=Verdana;fontSize=12" parent="fhP5wiahUty-ULh5uXUc-2" source="fhP5wiahUty-ULh5uXUc-29" target="fhP5wiahUty-ULh5uXUc-30" edge="1">
          <mxGeometry relative="1" as="geometry" />
        </mxCell>
        <mxCell id="fhP5wiahUty-ULh5uXUc-32" value="Seleccionar Materia a expandir" style="rounded=1;whiteSpace=wrap;html=1;shadow=0;comic=0;labelBackgroundColor=none;strokeWidth=1;fontFamily=Verdana;fontSize=12;align=center;arcSize=50;" parent="fhP5wiahUty-ULh5uXUc-2" vertex="1">
          <mxGeometry x="55" y="330" width="130" height="30" as="geometry" />
        </mxCell>
        <mxCell id="fhP5wiahUty-ULh5uXUc-47" value="Se utiliza la información para crear el objeto de la sección" style="shape=note;whiteSpace=wrap;html=1;rounded=0;shadow=0;comic=0;labelBackgroundColor=none;strokeWidth=1;fontFamily=Verdana;fontSize=12;align=center;size=20;" parent="fhP5wiahUty-ULh5uXUc-2" vertex="1">
          <mxGeometry x="62.5" y="640" width="127.5" height="70" as="geometry" />
        </mxCell>
        <mxCell id="2p3L3TgjeqZXqmOeopSJ-1" value="Lenar Formulario" style="rounded=1;whiteSpace=wrap;html=1;shadow=0;comic=0;labelBackgroundColor=none;strokeWidth=1;fontFamily=Verdana;fontSize=12;align=center;arcSize=50;" parent="fhP5wiahUty-ULh5uXUc-2" vertex="1">
          <mxGeometry x="85" y="550" width="100" height="30" as="geometry" />
        </mxCell>
        <mxCell id="2p3L3TgjeqZXqmOeopSJ-6" style="edgeStyle=none;rounded=0;html=1;dashed=1;labelBackgroundColor=none;startArrow=none;startFill=0;startSize=5;endArrow=oval;endFill=0;endSize=5;jettySize=auto;orthogonalLoop=1;strokeWidth=1;fontFamily=Verdana;fontSize=12" parent="fhP5wiahUty-ULh5uXUc-2" source="fhP5wiahUty-ULh5uXUc-47" target="2p3L3TgjeqZXqmOeopSJ-1" edge="1">
          <mxGeometry relative="1" as="geometry">
            <mxPoint x="58.09139784946228" y="584" as="sourcePoint" />
            <mxPoint x="59.59677419354841" y="640" as="targetPoint" />
          </mxGeometry>
        </mxCell>
        <mxCell id="IOdyeBHVZTsWK2gkYz2Q-3" value="Usuario selecciona qué hacer" style="rounded=1;whiteSpace=wrap;html=1;shadow=0;comic=0;labelBackgroundColor=none;strokeWidth=1;fontFamily=Verdana;fontSize=12;align=center;arcSize=50;" parent="fhP5wiahUty-ULh5uXUc-2" vertex="1">
          <mxGeometry x="55" y="140" width="130" height="30" as="geometry" />
        </mxCell>
        <mxCell id="IOdyeBHVZTsWK2gkYz2Q-4" value="" style="edgeStyle=elbowEdgeStyle;html=1;elbow=vertical;rounded=0;startArrow=none;startFill=0;endArrow=openThin;endFill=0;" parent="fhP5wiahUty-ULh5uXUc-2" source="fhP5wiahUty-ULh5uXUc-30" target="IOdyeBHVZTsWK2gkYz2Q-3" edge="1">
          <mxGeometry relative="1" as="geometry">
            <mxPoint x="297" y="165" as="sourcePoint" />
            <mxPoint x="355" y="165" as="targetPoint" />
          </mxGeometry>
        </mxCell>
        <mxCell id="fhP5wiahUty-ULh5uXUc-11" value="FrontEnd" style="swimlane;html=1;startSize=20;" parent="fhP5wiahUty-ULh5uXUc-1" vertex="1">
          <mxGeometry x="230" y="20" width="250" height="740" as="geometry" />
        </mxCell>
        <mxCell id="swKLaVqLyxpXLQsuiucK-3" value="" style="rhombus;" parent="fhP5wiahUty-ULh5uXUc-11" vertex="1">
          <mxGeometry x="115" y="140" width="30" height="30" as="geometry" />
        </mxCell>
        <mxCell id="fhP5wiahUty-ULh5uXUc-4" value="Mostrar Formulario de Materia" style="rounded=1;whiteSpace=wrap;html=1;shadow=0;comic=0;labelBackgroundColor=none;strokeWidth=1;fontFamily=Verdana;fontSize=12;align=center;arcSize=50;" parent="fhP5wiahUty-ULh5uXUc-11" vertex="1">
          <mxGeometry y="250" width="150" height="30" as="geometry" />
        </mxCell>
        <mxCell id="fhP5wiahUty-ULh5uXUc-58" style="edgeStyle=orthogonalEdgeStyle;rounded=0;html=1;labelBackgroundColor=none;startArrow=none;startFill=0;startSize=5;endArrow=openThin;endFill=0;endSize=5;jettySize=auto;orthogonalLoop=1;strokeWidth=1;fontFamily=Verdana;fontSize=12;" parent="fhP5wiahUty-ULh5uXUc-11" source="swKLaVqLyxpXLQsuiucK-3" target="fhP5wiahUty-ULh5uXUc-4" edge="1">
          <mxGeometry relative="1" as="geometry">
            <mxPoint x="157.5" y="190" as="sourcePoint" />
            <mxPoint x="116.5" y="310" as="targetPoint" />
          </mxGeometry>
        </mxCell>
        <mxCell id="swKLaVqLyxpXLQsuiucK-4" value="[Crear&lt;br&gt;Materia]" style="edgeLabel;html=1;align=center;verticalAlign=middle;resizable=0;points=[];" parent="fhP5wiahUty-ULh5uXUc-58" vertex="1" connectable="0">
          <mxGeometry x="0.2317" y="1" relative="1" as="geometry">
            <mxPoint x="2" y="-21" as="offset" />
          </mxGeometry>
        </mxCell>
        <mxCell id="fhP5wiahUty-ULh5uXUc-34" value="Mostrar Formulario de Sección" style="rounded=1;whiteSpace=wrap;html=1;shadow=0;comic=0;labelBackgroundColor=none;strokeWidth=1;fontFamily=Verdana;fontSize=12;align=center;arcSize=50;" parent="fhP5wiahUty-ULh5uXUc-11" vertex="1">
          <mxGeometry x="44" y="530" width="158.5" height="30" as="geometry" />
        </mxCell>
        <mxCell id="fhP5wiahUty-ULh5uXUc-18" value="Materia" style="rounded=0;whiteSpace=wrap;html=1;shadow=0;comic=0;labelBackgroundColor=none;strokeWidth=1;fontFamily=Verdana;fontSize=12;align=center;arcSize=50;" parent="fhP5wiahUty-ULh5uXUc-11" vertex="1">
          <mxGeometry x="89" y="420" width="70" height="30" as="geometry" />
        </mxCell>
        <mxCell id="2p3L3TgjeqZXqmOeopSJ-4" style="edgeStyle=elbowEdgeStyle;elbow=vertical;html=1;startArrow=openThin;startFill=0;endArrow=none;endFill=0;rounded=0;" parent="fhP5wiahUty-ULh5uXUc-11" source="fhP5wiahUty-ULh5uXUc-34" target="fhP5wiahUty-ULh5uXUc-18" edge="1">
          <mxGeometry relative="1" as="geometry" />
        </mxCell>
        <mxCell id="iNiu3fFf-t8U9WsIZJgJ-15" style="edgeStyle=orthogonalEdgeStyle;rounded=0;jumpStyle=none;elbow=vertical;html=1;startArrow=openThin;startFill=0;endArrow=none;endFill=0;" parent="fhP5wiahUty-ULh5uXUc-11" source="iNiu3fFf-t8U9WsIZJgJ-6" target="iNiu3fFf-t8U9WsIZJgJ-12" edge="1">
          <mxGeometry relative="1" as="geometry" />
        </mxCell>
        <mxCell id="iNiu3fFf-t8U9WsIZJgJ-6" value="Mostrar materias" style="whiteSpace=wrap;html=1;fontFamily=Verdana;fillColor=rgb(255, 255, 255);rounded=1;shadow=0;comic=0;labelBackgroundColor=none;strokeWidth=1;arcSize=50;" parent="fhP5wiahUty-ULh5uXUc-11" vertex="1">
          <mxGeometry x="60" y="300" width="120" height="30" as="geometry" />
        </mxCell>
        <mxCell id="iNiu3fFf-t8U9WsIZJgJ-2" value="" style="whiteSpace=wrap;html=1;rounded=0;shadow=0;comic=0;labelBackgroundColor=none;strokeWidth=1;fillColor=#000000;fontFamily=Verdana;fontSize=12;align=center;rotation=-90;" parent="fhP5wiahUty-ULh5uXUc-11" vertex="1">
          <mxGeometry x="-73" y="430" width="147" height="10" as="geometry" />
        </mxCell>
        <mxCell id="fhP5wiahUty-ULh5uXUc-60" style="edgeStyle=orthogonalEdgeStyle;rounded=0;html=1;labelBackgroundColor=none;startArrow=none;startFill=0;startSize=5;endArrow=openThin;endFill=0;endSize=5;jettySize=auto;orthogonalLoop=1;strokeWidth=1;fontFamily=Verdana;fontSize=12;entryX=0;entryY=0.5;entryDx=0;entryDy=0;jumpStyle=none;" parent="fhP5wiahUty-ULh5uXUc-11" source="iNiu3fFf-t8U9WsIZJgJ-2" target="fhP5wiahUty-ULh5uXUc-18" edge="1">
          <mxGeometry relative="1" as="geometry">
            <mxPoint x="26" y="405" as="sourcePoint" />
            <mxPoint x="207.5" y="425" as="targetPoint" />
          </mxGeometry>
        </mxCell>
        <mxCell id="fhP5wiahUty-ULh5uXUc-36" value="Lista de Secciones" style="rounded=0;whiteSpace=wrap;html=1;shadow=0;comic=0;labelBackgroundColor=none;strokeWidth=1;fontFamily=Verdana;fontSize=12;align=center;arcSize=50;" parent="fhP5wiahUty-ULh5uXUc-11" vertex="1">
          <mxGeometry x="80" y="630" width="70" height="30" as="geometry" />
        </mxCell>
        <mxCell id="iNiu3fFf-t8U9WsIZJgJ-12" value="Lista de Materias" style="rounded=0;whiteSpace=wrap;html=1;shadow=0;comic=0;labelBackgroundColor=none;strokeWidth=1;fontFamily=Verdana;fontSize=12;align=center;arcSize=50;fillStyle=hatch;" parent="fhP5wiahUty-ULh5uXUc-11" vertex="1">
          <mxGeometry x="190" y="240" width="70" height="30" as="geometry" />
        </mxCell>
        <mxCell id="fhP5wiahUty-ULh5uXUc-59" style="edgeStyle=elbowEdgeStyle;rounded=0;html=1;entryX=0;entryY=0.5;labelBackgroundColor=none;startArrow=none;startFill=0;startSize=5;endArrow=openThin;endFill=0;endSize=5;jettySize=auto;orthogonalLoop=1;strokeWidth=1;fontFamily=Verdana;fontSize=12;entryDx=0;entryDy=0;" parent="fhP5wiahUty-ULh5uXUc-1" source="fhP5wiahUty-ULh5uXUc-36" target="fhP5wiahUty-ULh5uXUc-14" edge="1">
          <mxGeometry relative="1" as="geometry">
            <mxPoint x="515" y="410" as="sourcePoint" />
            <mxPoint x="360.7500000000002" y="570" as="targetPoint" />
          </mxGeometry>
        </mxCell>
        <mxCell id="fhP5wiahUty-ULh5uXUc-3" style="edgeStyle=none;rounded=0;html=1;labelBackgroundColor=none;startArrow=none;startFill=0;startSize=5;endArrow=openThin;endFill=0;endSize=5;jettySize=auto;orthogonalLoop=1;strokeWidth=1;fontFamily=Verdana;fontSize=12" parent="fhP5wiahUty-ULh5uXUc-1" source="fhP5wiahUty-ULh5uXUc-4" target="fhP5wiahUty-ULh5uXUc-5" edge="1">
          <mxGeometry relative="1" as="geometry">
            <mxPoint x="190" y="297.2222222222223" as="targetPoint" />
          </mxGeometry>
        </mxCell>
        <mxCell id="iNiu3fFf-t8U9WsIZJgJ-64" style="edgeStyle=none;rounded=0;html=1;labelBackgroundColor=none;startArrow=none;startFill=0;startSize=5;endArrow=oval;endFill=0;endSize=5;jettySize=auto;orthogonalLoop=1;strokeWidth=1;fontFamily=Verdana;fontSize=12;dashed=1;" parent="fhP5wiahUty-ULh5uXUc-1" source="iNiu3fFf-t8U9WsIZJgJ-63" target="fhP5wiahUty-ULh5uXUc-18" edge="1">
          <mxGeometry relative="1" as="geometry">
            <mxPoint x="439.125" y="420" as="targetPoint" />
          </mxGeometry>
        </mxCell>
        <mxCell id="iNiu3fFf-t8U9WsIZJgJ-65" style="edgeStyle=none;rounded=0;html=1;dashed=1;labelBackgroundColor=none;startArrow=none;startFill=0;startSize=5;endArrow=oval;endFill=0;endSize=5;jettySize=auto;orthogonalLoop=1;strokeWidth=1;fontFamily=Verdana;fontSize=12" parent="fhP5wiahUty-ULh5uXUc-1" source="iNiu3fFf-t8U9WsIZJgJ-63" target="fhP5wiahUty-ULh5uXUc-34" edge="1">
          <mxGeometry relative="1" as="geometry">
            <mxPoint x="484.25" y="498.4835164835165" as="targetPoint" />
          </mxGeometry>
        </mxCell>
        <mxCell id="2p3L3TgjeqZXqmOeopSJ-2" style="edgeStyle=none;html=1;startArrow=openThin;startFill=0;endArrow=none;endFill=0;" parent="fhP5wiahUty-ULh5uXUc-1" source="2p3L3TgjeqZXqmOeopSJ-1" target="fhP5wiahUty-ULh5uXUc-34" edge="1">
          <mxGeometry relative="1" as="geometry" />
        </mxCell>
        <mxCell id="fhP5wiahUty-ULh5uXUc-33" style="edgeStyle=elbowEdgeStyle;rounded=0;html=1;labelBackgroundColor=none;startArrow=openThin;startFill=0;startSize=5;endArrow=none;endFill=0;endSize=5;jettySize=auto;orthogonalLoop=1;strokeWidth=1;fontFamily=Verdana;fontSize=12;exitX=0.75;exitY=0;exitDx=0;exitDy=0;" parent="fhP5wiahUty-ULh5uXUc-1" source="iNiu3fFf-t8U9WsIZJgJ-2" target="fhP5wiahUty-ULh5uXUc-32" edge="1">
          <mxGeometry relative="1" as="geometry">
            <mxPoint x="317.0000000000002" y="413" as="sourcePoint" />
            <mxPoint x="215" y="363" as="targetPoint" />
          </mxGeometry>
        </mxCell>
        <mxCell id="fhP5wiahUty-ULh5uXUc-17" style="edgeStyle=orthogonalEdgeStyle;rounded=0;html=1;labelBackgroundColor=none;startArrow=none;startFill=0;startSize=5;endArrow=openThin;endFill=0;endSize=5;jettySize=auto;orthogonalLoop=1;strokeWidth=1;fontFamily=Verdana;fontSize=12;entryX=0.25;entryY=0;entryDx=0;entryDy=0;" parent="fhP5wiahUty-ULh5uXUc-1" source="fhP5wiahUty-ULh5uXUc-5" target="iNiu3fFf-t8U9WsIZJgJ-2" edge="1">
          <mxGeometry relative="1" as="geometry">
            <mxPoint x="86" y="360" as="sourcePoint" />
            <mxPoint x="266" y="490" as="targetPoint" />
            <Array as="points">
              <mxPoint x="40" y="285" />
              <mxPoint x="40" y="492" />
            </Array>
          </mxGeometry>
        </mxCell>
        <mxCell id="iNiu3fFf-t8U9WsIZJgJ-4" style="edgeStyle=orthogonalEdgeStyle;rounded=0;html=1;labelBackgroundColor=none;startArrow=none;startFill=0;startSize=5;endArrow=openThin;endFill=0;endSize=5;jettySize=auto;orthogonalLoop=1;strokeWidth=1;fontFamily=Verdana;fontSize=12;exitX=1;exitY=0.5;exitDx=0;exitDy=0;" parent="fhP5wiahUty-ULh5uXUc-1" source="swKLaVqLyxpXLQsuiucK-3" target="iNiu3fFf-t8U9WsIZJgJ-3" edge="1">
          <mxGeometry relative="1" as="geometry">
            <mxPoint x="954" y="-60" as="sourcePoint" />
          </mxGeometry>
        </mxCell>
        <mxCell id="iNiu3fFf-t8U9WsIZJgJ-5" value="[Crear Sección]" style="edgeLabel;html=1;align=center;verticalAlign=middle;resizable=0;points=[];" parent="iNiu3fFf-t8U9WsIZJgJ-4" vertex="1" connectable="0">
          <mxGeometry x="0.4078" y="-2" relative="1" as="geometry">
            <mxPoint x="-146" y="-17" as="offset" />
          </mxGeometry>
        </mxCell>
        <mxCell id="iNiu3fFf-t8U9WsIZJgJ-7" value="" style="edgeStyle=elbowEdgeStyle;rounded=0;html=1;startArrow=openThin;startFill=0;endArrow=none;endFill=0;" parent="fhP5wiahUty-ULh5uXUc-1" source="iNiu3fFf-t8U9WsIZJgJ-12" target="iNiu3fFf-t8U9WsIZJgJ-3" edge="1">
          <mxGeometry relative="1" as="geometry" />
        </mxCell>
        <mxCell id="fhP5wiahUty-ULh5uXUc-46" style="edgeStyle=none;rounded=0;html=1;dashed=1;labelBackgroundColor=none;startArrow=none;startFill=0;startSize=5;endArrow=oval;endFill=0;endSize=5;jettySize=auto;orthogonalLoop=1;strokeWidth=1;fontFamily=Verdana;fontSize=12" parent="fhP5wiahUty-ULh5uXUc-1" source="fhP5wiahUty-ULh5uXUc-47" target="fhP5wiahUty-ULh5uXUc-36" edge="1">
          <mxGeometry relative="1" as="geometry" />
        </mxCell>
        <mxCell id="fhP5wiahUty-ULh5uXUc-35" style="edgeStyle=none;rounded=0;html=1;labelBackgroundColor=none;startArrow=none;startFill=0;startSize=5;endArrow=openThin;endFill=0;endSize=5;jettySize=auto;orthogonalLoop=1;strokeWidth=1;fontFamily=Verdana;fontSize=12" parent="fhP5wiahUty-ULh5uXUc-1" source="2p3L3TgjeqZXqmOeopSJ-1" target="fhP5wiahUty-ULh5uXUc-36" edge="1">
          <mxGeometry relative="1" as="geometry">
            <mxPoint x="150" y="550" as="sourcePoint" />
          </mxGeometry>
        </mxCell>
        <mxCell id="iNiu3fFf-t8U9WsIZJgJ-10" style="edgeStyle=orthogonalEdgeStyle;rounded=0;html=1;startArrow=openThin;startFill=0;endArrow=none;endFill=0;elbow=vertical;exitX=0.5;exitY=0;exitDx=0;exitDy=0;" parent="fhP5wiahUty-ULh5uXUc-1" source="fhP5wiahUty-ULh5uXUc-32" target="iNiu3fFf-t8U9WsIZJgJ-6" edge="1">
          <mxGeometry relative="1" as="geometry" />
        </mxCell>
        <mxCell id="fhP5wiahUty-ULh5uXUc-9" style="edgeStyle=none;rounded=0;html=1;dashed=1;labelBackgroundColor=none;startArrow=none;startFill=0;startSize=5;endArrow=oval;endFill=0;endSize=5;jettySize=auto;orthogonalLoop=1;strokeWidth=1;fontFamily=Verdana;fontSize=12" parent="fhP5wiahUty-ULh5uXUc-1" source="fhP5wiahUty-ULh5uXUc-10" target="iNiu3fFf-t8U9WsIZJgJ-12" edge="1">
          <mxGeometry relative="1" as="geometry">
            <mxPoint x="530" y="340" as="targetPoint" />
          </mxGeometry>
        </mxCell>
        <mxCell id="fhP5wiahUty-ULh5uXUc-27" value="BackEnd" style="swimlane;html=1;startSize=20;" parent="fhP5wiahUty-ULh5uXUc-1" vertex="1">
          <mxGeometry x="480" y="20" width="210" height="740" as="geometry" />
        </mxCell>
        <mxCell id="fhP5wiahUty-ULh5uXUc-44" value="" style="shape=mxgraph.bpmn.shape;html=1;verticalLabelPosition=bottom;labelBackgroundColor=#ffffff;verticalAlign=top;perimeter=ellipsePerimeter;outline=end;symbol=terminate;rounded=0;shadow=0;comic=0;strokeWidth=1;fontFamily=Verdana;fontSize=12;align=center;" parent="fhP5wiahUty-ULh5uXUc-27" vertex="1">
          <mxGeometry x="75" y="660" width="40" height="40" as="geometry" />
        </mxCell>
        <mxCell id="fhP5wiahUty-ULh5uXUc-19" style="edgeStyle=none;rounded=0;html=1;labelBackgroundColor=none;startArrow=none;startFill=0;startSize=5;endArrow=classicThin;endFill=1;endSize=5;jettySize=auto;orthogonalLoop=1;strokeWidth=1;fontFamily=Verdana;fontSize=12" parent="fhP5wiahUty-ULh5uXUc-27" edge="1">
          <mxGeometry relative="1" as="geometry">
            <mxPoint x="83.214285714286" y="630" as="sourcePoint" />
          </mxGeometry>
        </mxCell>
        <mxCell id="fhP5wiahUty-ULh5uXUc-61" style="edgeStyle=none;rounded=0;html=1;labelBackgroundColor=none;startArrow=none;startFill=0;startSize=5;endArrow=classicThin;endFill=1;endSize=5;jettySize=auto;orthogonalLoop=1;strokeWidth=1;fontFamily=Verdana;fontSize=12" parent="fhP5wiahUty-ULh5uXUc-27" edge="1">
          <mxGeometry relative="1" as="geometry">
            <mxPoint x="141.42857142857156" y="700" as="sourcePoint" />
          </mxGeometry>
        </mxCell>
        <mxCell id="fhP5wiahUty-ULh5uXUc-14" value="Actualizar Base de Datos" style="rounded=1;whiteSpace=wrap;html=1;shadow=0;comic=0;labelBackgroundColor=none;strokeWidth=1;fontFamily=Verdana;fontSize=12;align=center;arcSize=50;" parent="fhP5wiahUty-ULh5uXUc-27" vertex="1">
          <mxGeometry x="45" y="610" width="100" height="30" as="geometry" />
        </mxCell>
        <mxCell id="fhP5wiahUty-ULh5uXUc-13" style="edgeStyle=none;rounded=0;html=1;labelBackgroundColor=none;startArrow=none;startFill=0;startSize=5;endArrow=classicThin;endFill=1;endSize=5;jettySize=auto;orthogonalLoop=1;strokeWidth=1;fontFamily=Verdana;fontSize=12" parent="fhP5wiahUty-ULh5uXUc-27" source="fhP5wiahUty-ULh5uXUc-14" target="fhP5wiahUty-ULh5uXUc-44" edge="1">
          <mxGeometry relative="1" as="geometry">
            <mxPoint x="70.62500000000023" y="600" as="targetPoint" />
          </mxGeometry>
        </mxCell>
        <mxCell id="iNiu3fFf-t8U9WsIZJgJ-3" value="Traer lista de materias" style="rounded=1;whiteSpace=wrap;html=1;shadow=0;comic=0;labelBackgroundColor=none;strokeWidth=1;fontFamily=Verdana;fontSize=12;align=center;arcSize=50;" parent="fhP5wiahUty-ULh5uXUc-27" vertex="1">
          <mxGeometry x="45" y="210" width="130" height="30" as="geometry" />
        </mxCell>
        <mxCell id="fhP5wiahUty-ULh5uXUc-10" value="Revisa la base de datos para obtener una lista de materias a las cuales el profesor le pueda agregar secciones" style="shape=note;whiteSpace=wrap;html=1;rounded=0;shadow=0;comic=0;labelBackgroundColor=none;strokeWidth=1;fontFamily=Verdana;fontSize=12;align=center;size=20;" parent="fhP5wiahUty-ULh5uXUc-27" vertex="1">
          <mxGeometry x="-40" y="335" width="215" height="70" as="geometry" />
        </mxCell>
        <mxCell id="fhP5wiahUty-ULh5uXUc-8" style="edgeStyle=none;rounded=0;html=1;labelBackgroundColor=none;startArrow=none;startFill=0;startSize=5;endArrow=oval;endFill=0;endSize=5;jettySize=auto;orthogonalLoop=1;strokeWidth=1;fontFamily=Verdana;fontSize=12;dashed=1;" parent="fhP5wiahUty-ULh5uXUc-27" source="fhP5wiahUty-ULh5uXUc-10" target="iNiu3fFf-t8U9WsIZJgJ-3" edge="1">
          <mxGeometry relative="1" as="geometry" />
        </mxCell>
        <mxCell id="iNiu3fFf-t8U9WsIZJgJ-63" value="Se utiliza la materia creada o seleccionada para agregarle secciones" style="shape=note;whiteSpace=wrap;html=1;rounded=0;shadow=0;comic=0;labelBackgroundColor=none;strokeWidth=1;fontFamily=Verdana;fontSize=12;align=center;size=20;" parent="fhP5wiahUty-ULh5uXUc-27" vertex="1">
          <mxGeometry x="-25" y="460" width="120" height="80" as="geometry" />
        </mxCell>
        <mxCell id="IOdyeBHVZTsWK2gkYz2Q-2" value="" style="edgeStyle=none;html=1;startArrow=none;startFill=0;endArrow=openThin;endFill=0;" parent="fhP5wiahUty-ULh5uXUc-1" source="IOdyeBHVZTsWK2gkYz2Q-3" target="swKLaVqLyxpXLQsuiucK-3" edge="1">
          <mxGeometry relative="1" as="geometry">
            <mxPoint x="270" y="184" as="sourcePoint" />
          </mxGeometry>
        </mxCell>
      </root>
    </mxGraphModel>
  </diagram>
  <diagram id="POM--ZiU1Djq9MzXaL8D" name="Diagrama de Actividades (DC)">
    <mxGraphModel dx="1217" dy="709" grid="1" gridSize="10" guides="1" tooltips="1" connect="1" arrows="1" fold="1" page="1" pageScale="1" pageWidth="1654" pageHeight="1169" math="0" shadow="0">
      <root>
        <mxCell id="0" />
        <mxCell id="1" parent="0" />
        <mxCell id="Mekchem4jN5aQTwYrOZr-1" value="Modificar Horario" style="swimlane;html=1;childLayout=stackLayout;startSize=20;rounded=0;shadow=0;comic=0;labelBackgroundColor=none;strokeWidth=1;fontFamily=Verdana;fontSize=12;align=center;" parent="1" vertex="1">
          <mxGeometry x="100" width="751.25" height="990" as="geometry" />
        </mxCell>
        <mxCell id="Mekchem4jN5aQTwYrOZr-2" value="Profesor (Administrador)" style="swimlane;html=1;startSize=20;" parent="Mekchem4jN5aQTwYrOZr-1" vertex="1">
          <mxGeometry y="20" width="250" height="970" as="geometry" />
        </mxCell>
        <mxCell id="Mekchem4jN5aQTwYrOZr-29" value="" style="ellipse;whiteSpace=wrap;html=1;rounded=0;shadow=0;comic=0;labelBackgroundColor=none;strokeWidth=1;fillColor=#000000;fontFamily=Verdana;fontSize=12;align=center;" parent="Mekchem4jN5aQTwYrOZr-2" vertex="1">
          <mxGeometry x="47.5" y="40" width="40" height="40" as="geometry" />
        </mxCell>
        <mxCell id="Mekchem4jN5aQTwYrOZr-30" value="Accede a modificar materia" style="rounded=1;whiteSpace=wrap;html=1;shadow=0;comic=0;labelBackgroundColor=none;strokeWidth=1;fontFamily=Verdana;fontSize=12;align=center;arcSize=50;" parent="Mekchem4jN5aQTwYrOZr-2" vertex="1">
          <mxGeometry x="10" y="130" width="115" height="50" as="geometry" />
        </mxCell>
        <mxCell id="Mekchem4jN5aQTwYrOZr-28" style="edgeStyle=orthogonalEdgeStyle;rounded=0;html=1;labelBackgroundColor=none;startArrow=none;startFill=0;startSize=5;endArrow=classicThin;endFill=1;endSize=5;jettySize=auto;orthogonalLoop=1;strokeWidth=1;fontFamily=Verdana;fontSize=12" parent="Mekchem4jN5aQTwYrOZr-2" source="Mekchem4jN5aQTwYrOZr-29" target="Mekchem4jN5aQTwYrOZr-30" edge="1">
          <mxGeometry relative="1" as="geometry" />
        </mxCell>
        <mxCell id="Mekchem4jN5aQTwYrOZr-10" value="Viene de consultar materias con una materia seleccionada" style="shape=note;whiteSpace=wrap;html=1;rounded=0;shadow=0;comic=0;labelBackgroundColor=none;strokeWidth=1;fontFamily=Verdana;fontSize=12;align=center;size=15;" parent="Mekchem4jN5aQTwYrOZr-2" vertex="1">
          <mxGeometry x="155" y="30" width="95" height="80" as="geometry" />
        </mxCell>
        <mxCell id="fiHbA4y0yvTUNdtE452i-2" style="edgeStyle=none;rounded=0;html=1;dashed=1;labelBackgroundColor=none;startArrow=none;startFill=0;startSize=5;endArrow=oval;endFill=0;endSize=5;jettySize=auto;orthogonalLoop=1;strokeWidth=1;fontFamily=Verdana;fontSize=12;exitX=0;exitY=0.5;exitDx=0;exitDy=0;exitPerimeter=0;entryX=1;entryY=0.5;entryDx=0;entryDy=0;" parent="Mekchem4jN5aQTwYrOZr-2" source="Mekchem4jN5aQTwYrOZr-10" target="Mekchem4jN5aQTwYrOZr-29" edge="1">
          <mxGeometry relative="1" as="geometry">
            <mxPoint x="110" y="120" as="sourcePoint" />
            <mxPoint x="135" y="90" as="targetPoint" />
          </mxGeometry>
        </mxCell>
        <mxCell id="fiHbA4y0yvTUNdtE452i-3" value="" style="rhombus;whiteSpace=wrap;html=1;" parent="Mekchem4jN5aQTwYrOZr-2" vertex="1">
          <mxGeometry x="205" y="302" width="40" height="38" as="geometry" />
        </mxCell>
        <mxCell id="Mekchem4jN5aQTwYrOZr-12" value="" style="whiteSpace=wrap;html=1;rounded=0;shadow=0;comic=0;labelBackgroundColor=none;strokeWidth=1;fillColor=#000000;fontFamily=Verdana;fontSize=12;align=center;rotation=-90;" parent="Mekchem4jN5aQTwYrOZr-2" vertex="1">
          <mxGeometry x="-30" y="306" width="147" height="10" as="geometry" />
        </mxCell>
        <mxCell id="G1N65PwjsPreBxidW6El-14" style="edgeStyle=orthogonalEdgeStyle;rounded=0;orthogonalLoop=1;jettySize=auto;html=1;exitX=0.75;exitY=1;exitDx=0;exitDy=0;entryX=0.75;entryY=0;entryDx=0;entryDy=0;" parent="Mekchem4jN5aQTwYrOZr-2" source="Mekchem4jN5aQTwYrOZr-30" target="Mekchem4jN5aQTwYrOZr-12" edge="1">
          <mxGeometry relative="1" as="geometry">
            <Array as="points">
              <mxPoint x="20" y="180" />
              <mxPoint x="20" y="274" />
              <mxPoint x="39" y="274" />
            </Array>
          </mxGeometry>
        </mxCell>
        <mxCell id="Mekchem4jN5aQTwYrOZr-4" value="Elige que hacer" style="rounded=1;whiteSpace=wrap;html=1;shadow=0;comic=0;labelBackgroundColor=none;strokeWidth=1;fontFamily=Verdana;fontSize=12;align=center;arcSize=50;" parent="Mekchem4jN5aQTwYrOZr-2" vertex="1">
          <mxGeometry x="70" y="306" width="100" height="30" as="geometry" />
        </mxCell>
        <mxCell id="G1N65PwjsPreBxidW6El-12" style="edgeStyle=orthogonalEdgeStyle;rounded=0;orthogonalLoop=1;jettySize=auto;html=1;exitX=1;exitY=0.5;exitDx=0;exitDy=0;entryX=0;entryY=0.5;entryDx=0;entryDy=0;" parent="Mekchem4jN5aQTwYrOZr-2" source="Mekchem4jN5aQTwYrOZr-4" target="fiHbA4y0yvTUNdtE452i-3" edge="1">
          <mxGeometry relative="1" as="geometry" />
        </mxCell>
        <mxCell id="G1N65PwjsPreBxidW6El-15" style="edgeStyle=orthogonalEdgeStyle;rounded=0;orthogonalLoop=1;jettySize=auto;html=1;exitX=0.75;exitY=1;exitDx=0;exitDy=0;entryX=0.5;entryY=0;entryDx=0;entryDy=0;" parent="Mekchem4jN5aQTwYrOZr-2" source="Mekchem4jN5aQTwYrOZr-12" target="Mekchem4jN5aQTwYrOZr-4" edge="1">
          <mxGeometry relative="1" as="geometry" />
        </mxCell>
        <mxCell id="Mekchem4jN5aQTwYrOZr-11" value="Aplicación" style="swimlane;html=1;startSize=20;" parent="Mekchem4jN5aQTwYrOZr-1" vertex="1">
          <mxGeometry x="250" y="20" width="251.25" height="970" as="geometry" />
        </mxCell>
        <mxCell id="G1N65PwjsPreBxidW6El-20" style="edgeStyle=orthogonalEdgeStyle;rounded=0;orthogonalLoop=1;jettySize=auto;html=1;exitX=0.5;exitY=1;exitDx=0;exitDy=0;entryX=0.5;entryY=0;entryDx=0;entryDy=0;" parent="Mekchem4jN5aQTwYrOZr-11" source="G1N65PwjsPreBxidW6El-16" target="G1N65PwjsPreBxidW6El-19" edge="1">
          <mxGeometry relative="1" as="geometry" />
        </mxCell>
        <mxCell id="G1N65PwjsPreBxidW6El-16" value="Salir a consultar materias" style="rounded=1;whiteSpace=wrap;html=1;shadow=0;comic=0;labelBackgroundColor=none;strokeWidth=1;fontFamily=Verdana;fontSize=12;align=center;arcSize=50;" parent="Mekchem4jN5aQTwYrOZr-11" vertex="1">
          <mxGeometry x="61.87" y="124.25" width="128.13" height="35.75" as="geometry" />
        </mxCell>
        <mxCell id="G1N65PwjsPreBxidW6El-19" value="" style="shape=mxgraph.bpmn.shape;html=1;verticalLabelPosition=bottom;labelBackgroundColor=#ffffff;verticalAlign=top;perimeter=ellipsePerimeter;outline=end;symbol=terminate;rounded=0;shadow=0;comic=0;strokeWidth=1;fontFamily=Verdana;fontSize=12;align=center;" parent="Mekchem4jN5aQTwYrOZr-11" vertex="1">
          <mxGeometry x="105.00000000000011" y="202" width="40" height="40" as="geometry" />
        </mxCell>
        <mxCell id="G1N65PwjsPreBxidW6El-67" value="Solicita la información de la materia" style="rounded=1;whiteSpace=wrap;html=1;shadow=0;comic=0;labelBackgroundColor=none;strokeWidth=1;fontFamily=Verdana;fontSize=12;align=center;arcSize=50;" parent="Mekchem4jN5aQTwYrOZr-11" vertex="1">
          <mxGeometry x="100" y="289.12" width="126.25" height="55.75" as="geometry" />
        </mxCell>
        <mxCell id="G1N65PwjsPreBxidW6El-80" style="edgeStyle=orthogonalEdgeStyle;rounded=0;orthogonalLoop=1;jettySize=auto;html=1;exitX=0.5;exitY=1;exitDx=0;exitDy=0;entryX=0.5;entryY=0;entryDx=0;entryDy=0;" parent="Mekchem4jN5aQTwYrOZr-11" source="G1N65PwjsPreBxidW6El-5" target="G1N65PwjsPreBxidW6El-79" edge="1">
          <mxGeometry relative="1" as="geometry" />
        </mxCell>
        <mxCell id="G1N65PwjsPreBxidW6El-5" value="Muestra toda la información de la materia" style="rounded=1;whiteSpace=wrap;html=1;shadow=0;comic=0;labelBackgroundColor=none;strokeWidth=1;fontFamily=Verdana;fontSize=12;align=center;arcSize=50;" parent="Mekchem4jN5aQTwYrOZr-11" vertex="1">
          <mxGeometry x="61.870000000000005" y="387.75" width="130" height="47.13" as="geometry" />
        </mxCell>
        <mxCell id="G1N65PwjsPreBxidW6El-79" value="Muestra campos modificables" style="rounded=1;whiteSpace=wrap;html=1;shadow=0;comic=0;labelBackgroundColor=none;strokeWidth=1;fontFamily=Verdana;fontSize=12;align=center;arcSize=50;" parent="Mekchem4jN5aQTwYrOZr-11" vertex="1">
          <mxGeometry x="61.870000000000005" y="460.7" width="110" height="32.87" as="geometry" />
        </mxCell>
        <mxCell id="Mekchem4jN5aQTwYrOZr-27" value="Servidor" style="swimlane;html=1;startSize=20;" parent="Mekchem4jN5aQTwYrOZr-1" vertex="1">
          <mxGeometry x="501.25" y="20" width="250" height="970" as="geometry" />
        </mxCell>
        <mxCell id="Mekchem4jN5aQTwYrOZr-5" value="Busca la información en la base de datos" style="rounded=1;whiteSpace=wrap;html=1;shadow=0;comic=0;labelBackgroundColor=none;strokeWidth=1;fontFamily=Verdana;fontSize=12;align=center;arcSize=50;" parent="Mekchem4jN5aQTwYrOZr-27" vertex="1">
          <mxGeometry x="78.74999999999999" y="332" width="126.25" height="55.75" as="geometry" />
        </mxCell>
        <mxCell id="G1N65PwjsPreBxidW6El-9" style="edgeStyle=orthogonalEdgeStyle;rounded=0;orthogonalLoop=1;jettySize=auto;html=1;exitX=0.5;exitY=1;exitDx=0;exitDy=0;entryX=0.5;entryY=0;entryDx=0;entryDy=0;" parent="Mekchem4jN5aQTwYrOZr-27" source="G1N65PwjsPreBxidW6El-1" target="G1N65PwjsPreBxidW6El-8" edge="1">
          <mxGeometry relative="1" as="geometry" />
        </mxCell>
        <mxCell id="G1N65PwjsPreBxidW6El-1" value="Elige campo a modificar" style="rounded=1;whiteSpace=wrap;html=1;shadow=0;comic=0;labelBackgroundColor=none;strokeWidth=1;fontFamily=Verdana;fontSize=12;align=center;arcSize=50;" parent="Mekchem4jN5aQTwYrOZr-27" vertex="1">
          <mxGeometry x="-400" y="493.57" width="115" height="33" as="geometry" />
        </mxCell>
        <mxCell id="G1N65PwjsPreBxidW6El-8" value="Ingresa la nueva información" style="rounded=1;whiteSpace=wrap;html=1;shadow=0;comic=0;labelBackgroundColor=none;strokeWidth=1;fontFamily=Verdana;fontSize=12;align=center;arcSize=50;" parent="Mekchem4jN5aQTwYrOZr-27" vertex="1">
          <mxGeometry x="-400" y="563.5699999999999" width="115" height="40" as="geometry" />
        </mxCell>
        <mxCell id="G1N65PwjsPreBxidW6El-10" value="Elige" style="rounded=1;whiteSpace=wrap;html=1;shadow=0;comic=0;labelBackgroundColor=none;strokeWidth=1;fontFamily=Verdana;fontSize=12;align=center;arcSize=50;" parent="Mekchem4jN5aQTwYrOZr-27" vertex="1">
          <mxGeometry x="-395" y="641.5699999999999" width="115" height="40" as="geometry" />
        </mxCell>
        <mxCell id="G1N65PwjsPreBxidW6El-69" style="edgeStyle=orthogonalEdgeStyle;rounded=0;orthogonalLoop=1;jettySize=auto;html=1;exitX=1;exitY=0.5;exitDx=0;exitDy=0;entryX=0;entryY=0.5;entryDx=0;entryDy=0;" parent="Mekchem4jN5aQTwYrOZr-27" source="G1N65PwjsPreBxidW6El-26" target="G1N65PwjsPreBxidW6El-29" edge="1">
          <mxGeometry relative="1" as="geometry" />
        </mxCell>
        <mxCell id="G1N65PwjsPreBxidW6El-73" value="[Selecciona&amp;nbsp;&lt;div&gt;Guardar]&lt;/div&gt;" style="edgeLabel;html=1;align=center;verticalAlign=middle;resizable=0;points=[];" parent="G1N65PwjsPreBxidW6El-69" vertex="1" connectable="0">
          <mxGeometry x="-0.5413" relative="1" as="geometry">
            <mxPoint as="offset" />
          </mxGeometry>
        </mxCell>
        <mxCell id="G1N65PwjsPreBxidW6El-70" style="edgeStyle=orthogonalEdgeStyle;rounded=0;orthogonalLoop=1;jettySize=auto;html=1;exitX=0.5;exitY=1;exitDx=0;exitDy=0;entryX=0;entryY=0.5;entryDx=0;entryDy=0;" parent="Mekchem4jN5aQTwYrOZr-27" source="G1N65PwjsPreBxidW6El-26" target="G1N65PwjsPreBxidW6El-28" edge="1">
          <mxGeometry relative="1" as="geometry" />
        </mxCell>
        <mxCell id="G1N65PwjsPreBxidW6El-72" value="[Selecciona&lt;div&gt;Descartar]&lt;/div&gt;" style="edgeLabel;html=1;align=center;verticalAlign=middle;resizable=0;points=[];" parent="G1N65PwjsPreBxidW6El-70" vertex="1" connectable="0">
          <mxGeometry x="0.1728" relative="1" as="geometry">
            <mxPoint x="-1" as="offset" />
          </mxGeometry>
        </mxCell>
        <mxCell id="G1N65PwjsPreBxidW6El-26" value="" style="rhombus;whiteSpace=wrap;html=1;" parent="Mekchem4jN5aQTwYrOZr-27" vertex="1">
          <mxGeometry x="-357.5" y="711.5699999999999" width="40" height="38" as="geometry" />
        </mxCell>
        <mxCell id="G1N65PwjsPreBxidW6El-27" style="edgeStyle=orthogonalEdgeStyle;rounded=0;orthogonalLoop=1;jettySize=auto;html=1;exitX=0.5;exitY=1;exitDx=0;exitDy=0;entryX=0.5;entryY=0;entryDx=0;entryDy=0;" parent="Mekchem4jN5aQTwYrOZr-27" source="G1N65PwjsPreBxidW6El-10" target="G1N65PwjsPreBxidW6El-26" edge="1">
          <mxGeometry relative="1" as="geometry" />
        </mxCell>
        <mxCell id="G1N65PwjsPreBxidW6El-22" value="Muestra la materia con la nueva información" style="rounded=1;whiteSpace=wrap;html=1;shadow=0;comic=0;labelBackgroundColor=none;strokeWidth=1;fontFamily=Verdana;fontSize=12;align=center;arcSize=50;" parent="Mekchem4jN5aQTwYrOZr-27" vertex="1">
          <mxGeometry x="-190" y="560.01" width="130" height="47.13" as="geometry" />
        </mxCell>
        <mxCell id="G1N65PwjsPreBxidW6El-28" value="Desecha la información nueva" style="rounded=1;whiteSpace=wrap;html=1;shadow=0;comic=0;labelBackgroundColor=none;strokeWidth=1;fontFamily=Verdana;fontSize=12;align=center;arcSize=50;" parent="Mekchem4jN5aQTwYrOZr-27" vertex="1">
          <mxGeometry x="-241.25" y="776.44" width="120" height="50" as="geometry" />
        </mxCell>
        <mxCell id="G1N65PwjsPreBxidW6El-29" value="Envía la información a la base de datos" style="rounded=1;whiteSpace=wrap;html=1;shadow=0;comic=0;labelBackgroundColor=none;strokeWidth=1;fontFamily=Verdana;fontSize=12;align=center;arcSize=50;" parent="Mekchem4jN5aQTwYrOZr-27" vertex="1">
          <mxGeometry x="-182.5" y="709.5699999999999" width="115" height="40" as="geometry" />
        </mxCell>
        <mxCell id="G1N65PwjsPreBxidW6El-23" style="edgeStyle=orthogonalEdgeStyle;rounded=0;orthogonalLoop=1;jettySize=auto;html=1;exitX=1;exitY=0.5;exitDx=0;exitDy=0;entryX=0;entryY=0.5;entryDx=0;entryDy=0;" parent="Mekchem4jN5aQTwYrOZr-27" source="G1N65PwjsPreBxidW6El-8" target="G1N65PwjsPreBxidW6El-22" edge="1">
          <mxGeometry relative="1" as="geometry" />
        </mxCell>
        <mxCell id="G1N65PwjsPreBxidW6El-25" style="edgeStyle=orthogonalEdgeStyle;rounded=0;orthogonalLoop=1;jettySize=auto;html=1;exitX=0.5;exitY=1;exitDx=0;exitDy=0;entryX=1;entryY=0.5;entryDx=0;entryDy=0;" parent="Mekchem4jN5aQTwYrOZr-27" source="G1N65PwjsPreBxidW6El-22" target="G1N65PwjsPreBxidW6El-10" edge="1">
          <mxGeometry relative="1" as="geometry" />
        </mxCell>
        <mxCell id="G1N65PwjsPreBxidW6El-76" value="Envía al usuario al inicio" style="rounded=1;whiteSpace=wrap;html=1;shadow=0;comic=0;labelBackgroundColor=none;strokeWidth=1;fontFamily=Verdana;fontSize=12;align=center;arcSize=50;" parent="Mekchem4jN5aQTwYrOZr-27" vertex="1">
          <mxGeometry x="-180.62" y="886.44" width="110" height="40" as="geometry" />
        </mxCell>
        <mxCell id="G1N65PwjsPreBxidW6El-74" value="Actualiza la información en la base de datos" style="rounded=1;whiteSpace=wrap;html=1;shadow=0;comic=0;labelBackgroundColor=none;strokeWidth=1;fontFamily=Verdana;fontSize=12;align=center;arcSize=50;" parent="Mekchem4jN5aQTwYrOZr-27" vertex="1">
          <mxGeometry x="88.75" y="776.44" width="126.25" height="55.75" as="geometry" />
        </mxCell>
        <mxCell id="G1N65PwjsPreBxidW6El-75" style="edgeStyle=orthogonalEdgeStyle;rounded=0;orthogonalLoop=1;jettySize=auto;html=1;exitX=1;exitY=0.5;exitDx=0;exitDy=0;entryX=0;entryY=0.5;entryDx=0;entryDy=0;" parent="Mekchem4jN5aQTwYrOZr-27" source="G1N65PwjsPreBxidW6El-29" target="G1N65PwjsPreBxidW6El-74" edge="1">
          <mxGeometry relative="1" as="geometry" />
        </mxCell>
        <mxCell id="G1N65PwjsPreBxidW6El-77" style="edgeStyle=orthogonalEdgeStyle;rounded=0;orthogonalLoop=1;jettySize=auto;html=1;exitX=0.5;exitY=1;exitDx=0;exitDy=0;" parent="Mekchem4jN5aQTwYrOZr-27" source="G1N65PwjsPreBxidW6El-74" target="G1N65PwjsPreBxidW6El-76" edge="1">
          <mxGeometry relative="1" as="geometry" />
        </mxCell>
        <mxCell id="G1N65PwjsPreBxidW6El-2" style="edgeStyle=orthogonalEdgeStyle;rounded=0;orthogonalLoop=1;jettySize=auto;html=1;exitX=1;exitY=0.5;exitDx=0;exitDy=0;entryX=0;entryY=0.5;entryDx=0;entryDy=0;" parent="Mekchem4jN5aQTwYrOZr-1" source="fiHbA4y0yvTUNdtE452i-3" target="G1N65PwjsPreBxidW6El-67" edge="1">
          <mxGeometry relative="1" as="geometry" />
        </mxCell>
        <mxCell id="G1N65PwjsPreBxidW6El-4" value="[Selecciona&amp;nbsp;&lt;div&gt;modificar]&lt;/div&gt;" style="edgeLabel;html=1;align=center;verticalAlign=middle;resizable=0;points=[];" parent="G1N65PwjsPreBxidW6El-2" vertex="1" connectable="0">
          <mxGeometry x="-0.4661" y="1" relative="1" as="geometry">
            <mxPoint as="offset" />
          </mxGeometry>
        </mxCell>
        <mxCell id="G1N65PwjsPreBxidW6El-17" style="edgeStyle=orthogonalEdgeStyle;rounded=0;orthogonalLoop=1;jettySize=auto;html=1;exitX=0.5;exitY=0;exitDx=0;exitDy=0;entryX=0;entryY=0.5;entryDx=0;entryDy=0;" parent="Mekchem4jN5aQTwYrOZr-1" source="fiHbA4y0yvTUNdtE452i-3" target="G1N65PwjsPreBxidW6El-16" edge="1">
          <mxGeometry relative="1" as="geometry" />
        </mxCell>
        <mxCell id="G1N65PwjsPreBxidW6El-18" value="[Selecciona&amp;nbsp;&lt;div&gt;salir]&lt;/div&gt;" style="edgeLabel;html=1;align=center;verticalAlign=middle;resizable=0;points=[];" parent="G1N65PwjsPreBxidW6El-17" vertex="1" connectable="0">
          <mxGeometry x="-0.2809" y="-1" relative="1" as="geometry">
            <mxPoint as="offset" />
          </mxGeometry>
        </mxCell>
        <mxCell id="G1N65PwjsPreBxidW6El-68" style="edgeStyle=orthogonalEdgeStyle;rounded=0;orthogonalLoop=1;jettySize=auto;html=1;exitX=1;exitY=0.5;exitDx=0;exitDy=0;entryX=0;entryY=0.5;entryDx=0;entryDy=0;" parent="Mekchem4jN5aQTwYrOZr-1" source="G1N65PwjsPreBxidW6El-67" target="Mekchem4jN5aQTwYrOZr-5" edge="1">
          <mxGeometry relative="1" as="geometry" />
        </mxCell>
        <mxCell id="G1N65PwjsPreBxidW6El-6" style="edgeStyle=orthogonalEdgeStyle;rounded=0;orthogonalLoop=1;jettySize=auto;html=1;exitX=0;exitY=0.75;exitDx=0;exitDy=0;entryX=1;entryY=0.5;entryDx=0;entryDy=0;" parent="Mekchem4jN5aQTwYrOZr-1" source="Mekchem4jN5aQTwYrOZr-5" target="G1N65PwjsPreBxidW6El-5" edge="1">
          <mxGeometry relative="1" as="geometry" />
        </mxCell>
        <mxCell id="G1N65PwjsPreBxidW6El-71" style="edgeStyle=orthogonalEdgeStyle;rounded=0;orthogonalLoop=1;jettySize=auto;html=1;exitX=0.5;exitY=1;exitDx=0;exitDy=0;entryX=0.577;entryY=0.088;entryDx=0;entryDy=0;entryPerimeter=0;" parent="Mekchem4jN5aQTwYrOZr-1" source="G1N65PwjsPreBxidW6El-28" target="Mekchem4jN5aQTwYrOZr-12" edge="1">
          <mxGeometry relative="1" as="geometry" />
        </mxCell>
        <mxCell id="G1N65PwjsPreBxidW6El-78" style="edgeStyle=orthogonalEdgeStyle;rounded=0;orthogonalLoop=1;jettySize=auto;html=1;exitX=0;exitY=0.5;exitDx=0;exitDy=0;entryX=0.355;entryY=-0.017;entryDx=0;entryDy=0;entryPerimeter=0;" parent="Mekchem4jN5aQTwYrOZr-1" source="G1N65PwjsPreBxidW6El-76" target="Mekchem4jN5aQTwYrOZr-12" edge="1">
          <mxGeometry relative="1" as="geometry" />
        </mxCell>
        <mxCell id="G1N65PwjsPreBxidW6El-7" style="edgeStyle=orthogonalEdgeStyle;rounded=0;orthogonalLoop=1;jettySize=auto;html=1;exitX=0;exitY=0.5;exitDx=0;exitDy=0;entryX=1;entryY=0.5;entryDx=0;entryDy=0;" parent="Mekchem4jN5aQTwYrOZr-1" source="G1N65PwjsPreBxidW6El-79" target="G1N65PwjsPreBxidW6El-1" edge="1">
          <mxGeometry relative="1" as="geometry">
            <mxPoint x="332.5" y="500.0049999999998" as="sourcePoint" />
          </mxGeometry>
        </mxCell>
      </root>
    </mxGraphModel>
  </diagram>
  <diagram id="w6RcnvYAy_176BDXWRrH" name="Diagrama de Dominio">
    <mxGraphModel dx="1739" dy="1013" grid="1" gridSize="10" guides="1" tooltips="1" connect="1" arrows="1" fold="1" page="1" pageScale="1" pageWidth="1169" pageHeight="827" math="0" shadow="0">
      <root>
        <mxCell id="0" />
        <mxCell id="1" parent="0" />
        <mxCell id="4Jaw9HgwLOjeu3vCRIFy-1" value="" style="endArrow=diamondThin;endFill=0;endSize=24;html=1;" edge="1" parent="1" source="4Jaw9HgwLOjeu3vCRIFy-10" target="4Jaw9HgwLOjeu3vCRIFy-28">
          <mxGeometry width="160" relative="1" as="geometry">
            <mxPoint x="680" y="470" as="sourcePoint" />
            <mxPoint x="520" y="470" as="targetPoint" />
          </mxGeometry>
        </mxCell>
        <mxCell id="4Jaw9HgwLOjeu3vCRIFy-2" value="1..*" style="edgeLabel;html=1;align=center;verticalAlign=middle;resizable=0;points=[];" vertex="1" connectable="0" parent="4Jaw9HgwLOjeu3vCRIFy-1">
          <mxGeometry x="-0.2" y="-2" relative="1" as="geometry">
            <mxPoint x="-48" y="-18" as="offset" />
          </mxGeometry>
        </mxCell>
        <mxCell id="4Jaw9HgwLOjeu3vCRIFy-3" value="1..*" style="edgeLabel;html=1;align=center;verticalAlign=middle;resizable=0;points=[];" vertex="1" connectable="0" parent="4Jaw9HgwLOjeu3vCRIFy-1">
          <mxGeometry x="-0.536" y="1" relative="1" as="geometry">
            <mxPoint x="91" y="-15" as="offset" />
          </mxGeometry>
        </mxCell>
        <mxCell id="4Jaw9HgwLOjeu3vCRIFy-4" value="Sección" style="swimlane;html=1;fontStyle=1;align=center;verticalAlign=top;childLayout=stackLayout;horizontal=1;startSize=26;horizontalStack=0;resizeParent=1;resizeLast=0;collapsible=1;marginBottom=0;swimlaneFillColor=#ffffff;rounded=0;shadow=0;comic=0;labelBackgroundColor=none;strokeWidth=1;fillColor=none;fontFamily=Verdana;fontSize=12" vertex="1" collapsed="1" parent="1">
          <mxGeometry x="410" y="500" width="110" height="30" as="geometry">
            <mxRectangle x="35" y="436" width="160" height="168" as="alternateBounds" />
          </mxGeometry>
        </mxCell>
        <mxCell id="4Jaw9HgwLOjeu3vCRIFy-5" value="+ field: type" style="text;html=1;strokeColor=none;fillColor=none;align=left;verticalAlign=top;spacingLeft=4;spacingRight=4;whiteSpace=wrap;overflow=hidden;rotatable=0;points=[[0,0.5],[1,0.5]];portConstraint=eastwest;" vertex="1" parent="4Jaw9HgwLOjeu3vCRIFy-4">
          <mxGeometry y="26" width="160" height="26" as="geometry" />
        </mxCell>
        <mxCell id="4Jaw9HgwLOjeu3vCRIFy-6" value="+ field: type" style="text;html=1;strokeColor=none;fillColor=none;align=left;verticalAlign=top;spacingLeft=4;spacingRight=4;whiteSpace=wrap;overflow=hidden;rotatable=0;points=[[0,0.5],[1,0.5]];portConstraint=eastwest;" vertex="1" parent="4Jaw9HgwLOjeu3vCRIFy-4">
          <mxGeometry y="52" width="160" height="26" as="geometry" />
        </mxCell>
        <mxCell id="4Jaw9HgwLOjeu3vCRIFy-7" value="+ field: type" style="text;html=1;strokeColor=none;fillColor=none;align=left;verticalAlign=top;spacingLeft=4;spacingRight=4;whiteSpace=wrap;overflow=hidden;rotatable=0;points=[[0,0.5],[1,0.5]];portConstraint=eastwest;" vertex="1" parent="4Jaw9HgwLOjeu3vCRIFy-4">
          <mxGeometry y="78" width="160" height="26" as="geometry" />
        </mxCell>
        <mxCell id="4Jaw9HgwLOjeu3vCRIFy-8" value="" style="line;html=1;strokeWidth=1;fillColor=none;align=left;verticalAlign=middle;spacingTop=-1;spacingLeft=3;spacingRight=3;rotatable=0;labelPosition=right;points=[];portConstraint=eastwest;" vertex="1" parent="4Jaw9HgwLOjeu3vCRIFy-4">
          <mxGeometry y="104" width="160" height="8" as="geometry" />
        </mxCell>
        <mxCell id="4Jaw9HgwLOjeu3vCRIFy-9" value="+ method(type): type" style="text;html=1;strokeColor=none;fillColor=none;align=left;verticalAlign=top;spacingLeft=4;spacingRight=4;whiteSpace=wrap;overflow=hidden;rotatable=0;points=[[0,0.5],[1,0.5]];portConstraint=eastwest;" vertex="1" parent="4Jaw9HgwLOjeu3vCRIFy-4">
          <mxGeometry y="112" width="160" height="26" as="geometry" />
        </mxCell>
        <mxCell id="4Jaw9HgwLOjeu3vCRIFy-10" value="Materia" style="swimlane;html=1;fontStyle=1;align=center;verticalAlign=top;childLayout=stackLayout;horizontal=1;startSize=26;horizontalStack=0;resizeParent=1;resizeLast=0;collapsible=1;marginBottom=0;swimlaneFillColor=#ffffff;rounded=0;shadow=0;comic=0;labelBackgroundColor=none;strokeWidth=1;fillColor=none;fontFamily=Verdana;fontSize=12" vertex="1" collapsed="1" parent="1">
          <mxGeometry x="630" y="500" width="110" height="30" as="geometry">
            <mxRectangle x="35" y="436" width="160" height="168" as="alternateBounds" />
          </mxGeometry>
        </mxCell>
        <mxCell id="4Jaw9HgwLOjeu3vCRIFy-11" value="+ field: type" style="text;html=1;strokeColor=none;fillColor=none;align=left;verticalAlign=top;spacingLeft=4;spacingRight=4;whiteSpace=wrap;overflow=hidden;rotatable=0;points=[[0,0.5],[1,0.5]];portConstraint=eastwest;" vertex="1" parent="4Jaw9HgwLOjeu3vCRIFy-10">
          <mxGeometry y="26" width="160" height="26" as="geometry" />
        </mxCell>
        <mxCell id="4Jaw9HgwLOjeu3vCRIFy-12" value="+ field: type" style="text;html=1;strokeColor=none;fillColor=none;align=left;verticalAlign=top;spacingLeft=4;spacingRight=4;whiteSpace=wrap;overflow=hidden;rotatable=0;points=[[0,0.5],[1,0.5]];portConstraint=eastwest;" vertex="1" parent="4Jaw9HgwLOjeu3vCRIFy-10">
          <mxGeometry y="52" width="160" height="26" as="geometry" />
        </mxCell>
        <mxCell id="4Jaw9HgwLOjeu3vCRIFy-13" value="+ field: type" style="text;html=1;strokeColor=none;fillColor=none;align=left;verticalAlign=top;spacingLeft=4;spacingRight=4;whiteSpace=wrap;overflow=hidden;rotatable=0;points=[[0,0.5],[1,0.5]];portConstraint=eastwest;" vertex="1" parent="4Jaw9HgwLOjeu3vCRIFy-10">
          <mxGeometry y="78" width="160" height="26" as="geometry" />
        </mxCell>
        <mxCell id="4Jaw9HgwLOjeu3vCRIFy-14" value="" style="line;html=1;strokeWidth=1;fillColor=none;align=left;verticalAlign=middle;spacingTop=-1;spacingLeft=3;spacingRight=3;rotatable=0;labelPosition=right;points=[];portConstraint=eastwest;" vertex="1" parent="4Jaw9HgwLOjeu3vCRIFy-10">
          <mxGeometry y="104" width="160" height="8" as="geometry" />
        </mxCell>
        <mxCell id="4Jaw9HgwLOjeu3vCRIFy-15" value="+ method(type): type" style="text;html=1;strokeColor=none;fillColor=none;align=left;verticalAlign=top;spacingLeft=4;spacingRight=4;whiteSpace=wrap;overflow=hidden;rotatable=0;points=[[0,0.5],[1,0.5]];portConstraint=eastwest;" vertex="1" parent="4Jaw9HgwLOjeu3vCRIFy-10">
          <mxGeometry y="112" width="160" height="26" as="geometry" />
        </mxCell>
        <mxCell id="4Jaw9HgwLOjeu3vCRIFy-16" value="Bloque de Hora" style="swimlane;html=1;fontStyle=1;align=center;verticalAlign=top;childLayout=stackLayout;horizontal=1;startSize=26;horizontalStack=0;resizeParent=1;resizeLast=0;collapsible=1;marginBottom=0;swimlaneFillColor=#ffffff;rounded=0;shadow=0;comic=0;labelBackgroundColor=none;strokeWidth=1;fillColor=none;fontFamily=Verdana;fontSize=12" vertex="1" collapsed="1" parent="1">
          <mxGeometry x="130" y="500" width="110" height="30" as="geometry">
            <mxRectangle x="35" y="436" width="160" height="168" as="alternateBounds" />
          </mxGeometry>
        </mxCell>
        <mxCell id="4Jaw9HgwLOjeu3vCRIFy-17" value="+ field: type" style="text;html=1;strokeColor=none;fillColor=none;align=left;verticalAlign=top;spacingLeft=4;spacingRight=4;whiteSpace=wrap;overflow=hidden;rotatable=0;points=[[0,0.5],[1,0.5]];portConstraint=eastwest;" vertex="1" parent="4Jaw9HgwLOjeu3vCRIFy-16">
          <mxGeometry y="26" width="160" height="26" as="geometry" />
        </mxCell>
        <mxCell id="4Jaw9HgwLOjeu3vCRIFy-18" value="+ field: type" style="text;html=1;strokeColor=none;fillColor=none;align=left;verticalAlign=top;spacingLeft=4;spacingRight=4;whiteSpace=wrap;overflow=hidden;rotatable=0;points=[[0,0.5],[1,0.5]];portConstraint=eastwest;" vertex="1" parent="4Jaw9HgwLOjeu3vCRIFy-16">
          <mxGeometry y="52" width="160" height="26" as="geometry" />
        </mxCell>
        <mxCell id="4Jaw9HgwLOjeu3vCRIFy-19" value="+ field: type" style="text;html=1;strokeColor=none;fillColor=none;align=left;verticalAlign=top;spacingLeft=4;spacingRight=4;whiteSpace=wrap;overflow=hidden;rotatable=0;points=[[0,0.5],[1,0.5]];portConstraint=eastwest;" vertex="1" parent="4Jaw9HgwLOjeu3vCRIFy-16">
          <mxGeometry y="78" width="160" height="26" as="geometry" />
        </mxCell>
        <mxCell id="4Jaw9HgwLOjeu3vCRIFy-20" value="" style="line;html=1;strokeWidth=1;fillColor=none;align=left;verticalAlign=middle;spacingTop=-1;spacingLeft=3;spacingRight=3;rotatable=0;labelPosition=right;points=[];portConstraint=eastwest;" vertex="1" parent="4Jaw9HgwLOjeu3vCRIFy-16">
          <mxGeometry y="104" width="160" height="8" as="geometry" />
        </mxCell>
        <mxCell id="4Jaw9HgwLOjeu3vCRIFy-21" value="+ method(type): type" style="text;html=1;strokeColor=none;fillColor=none;align=left;verticalAlign=top;spacingLeft=4;spacingRight=4;whiteSpace=wrap;overflow=hidden;rotatable=0;points=[[0,0.5],[1,0.5]];portConstraint=eastwest;" vertex="1" parent="4Jaw9HgwLOjeu3vCRIFy-16">
          <mxGeometry y="112" width="160" height="26" as="geometry" />
        </mxCell>
        <mxCell id="4Jaw9HgwLOjeu3vCRIFy-22" value="Evento" style="swimlane;html=1;fontStyle=1;align=center;verticalAlign=top;childLayout=stackLayout;horizontal=1;startSize=26;horizontalStack=0;resizeParent=1;resizeLast=0;collapsible=1;marginBottom=0;swimlaneFillColor=#ffffff;rounded=0;shadow=0;comic=0;labelBackgroundColor=none;strokeWidth=1;fillColor=none;fontFamily=Verdana;fontSize=12" vertex="1" collapsed="1" parent="1">
          <mxGeometry x="130" y="340" width="110" height="30" as="geometry">
            <mxRectangle x="35" y="436" width="160" height="168" as="alternateBounds" />
          </mxGeometry>
        </mxCell>
        <mxCell id="4Jaw9HgwLOjeu3vCRIFy-23" value="+ field: type" style="text;html=1;strokeColor=none;fillColor=none;align=left;verticalAlign=top;spacingLeft=4;spacingRight=4;whiteSpace=wrap;overflow=hidden;rotatable=0;points=[[0,0.5],[1,0.5]];portConstraint=eastwest;" vertex="1" parent="4Jaw9HgwLOjeu3vCRIFy-22">
          <mxGeometry y="26" width="160" height="26" as="geometry" />
        </mxCell>
        <mxCell id="4Jaw9HgwLOjeu3vCRIFy-24" value="+ field: type" style="text;html=1;strokeColor=none;fillColor=none;align=left;verticalAlign=top;spacingLeft=4;spacingRight=4;whiteSpace=wrap;overflow=hidden;rotatable=0;points=[[0,0.5],[1,0.5]];portConstraint=eastwest;" vertex="1" parent="4Jaw9HgwLOjeu3vCRIFy-22">
          <mxGeometry y="52" width="160" height="26" as="geometry" />
        </mxCell>
        <mxCell id="4Jaw9HgwLOjeu3vCRIFy-25" value="+ field: type" style="text;html=1;strokeColor=none;fillColor=none;align=left;verticalAlign=top;spacingLeft=4;spacingRight=4;whiteSpace=wrap;overflow=hidden;rotatable=0;points=[[0,0.5],[1,0.5]];portConstraint=eastwest;" vertex="1" parent="4Jaw9HgwLOjeu3vCRIFy-22">
          <mxGeometry y="78" width="160" height="26" as="geometry" />
        </mxCell>
        <mxCell id="4Jaw9HgwLOjeu3vCRIFy-26" value="" style="line;html=1;strokeWidth=1;fillColor=none;align=left;verticalAlign=middle;spacingTop=-1;spacingLeft=3;spacingRight=3;rotatable=0;labelPosition=right;points=[];portConstraint=eastwest;" vertex="1" parent="4Jaw9HgwLOjeu3vCRIFy-22">
          <mxGeometry y="104" width="160" height="8" as="geometry" />
        </mxCell>
        <mxCell id="4Jaw9HgwLOjeu3vCRIFy-27" value="+ method(type): type" style="text;html=1;strokeColor=none;fillColor=none;align=left;verticalAlign=top;spacingLeft=4;spacingRight=4;whiteSpace=wrap;overflow=hidden;rotatable=0;points=[[0,0.5],[1,0.5]];portConstraint=eastwest;" vertex="1" parent="4Jaw9HgwLOjeu3vCRIFy-22">
          <mxGeometry y="112" width="160" height="26" as="geometry" />
        </mxCell>
        <mxCell id="4Jaw9HgwLOjeu3vCRIFy-28" value="Pensum" style="swimlane;html=1;fontStyle=1;align=center;verticalAlign=top;childLayout=stackLayout;horizontal=1;startSize=26;horizontalStack=0;resizeParent=1;resizeLast=0;collapsible=1;marginBottom=0;swimlaneFillColor=#ffffff;rounded=0;shadow=0;comic=0;labelBackgroundColor=none;strokeWidth=1;fillColor=none;fontFamily=Verdana;fontSize=12" vertex="1" collapsed="1" parent="1">
          <mxGeometry x="910" y="500" width="110" height="30" as="geometry">
            <mxRectangle x="660" y="261" width="160" height="168" as="alternateBounds" />
          </mxGeometry>
        </mxCell>
        <mxCell id="4Jaw9HgwLOjeu3vCRIFy-29" value="+ field: type" style="text;html=1;strokeColor=none;fillColor=none;align=left;verticalAlign=top;spacingLeft=4;spacingRight=4;whiteSpace=wrap;overflow=hidden;rotatable=0;points=[[0,0.5],[1,0.5]];portConstraint=eastwest;" vertex="1" parent="4Jaw9HgwLOjeu3vCRIFy-28">
          <mxGeometry y="26" width="160" height="26" as="geometry" />
        </mxCell>
        <mxCell id="4Jaw9HgwLOjeu3vCRIFy-30" value="+ field: type" style="text;html=1;strokeColor=none;fillColor=none;align=left;verticalAlign=top;spacingLeft=4;spacingRight=4;whiteSpace=wrap;overflow=hidden;rotatable=0;points=[[0,0.5],[1,0.5]];portConstraint=eastwest;" vertex="1" parent="4Jaw9HgwLOjeu3vCRIFy-28">
          <mxGeometry y="52" width="160" height="26" as="geometry" />
        </mxCell>
        <mxCell id="4Jaw9HgwLOjeu3vCRIFy-31" value="+ field: type" style="text;html=1;strokeColor=none;fillColor=none;align=left;verticalAlign=top;spacingLeft=4;spacingRight=4;whiteSpace=wrap;overflow=hidden;rotatable=0;points=[[0,0.5],[1,0.5]];portConstraint=eastwest;" vertex="1" parent="4Jaw9HgwLOjeu3vCRIFy-28">
          <mxGeometry y="78" width="160" height="26" as="geometry" />
        </mxCell>
        <mxCell id="4Jaw9HgwLOjeu3vCRIFy-32" value="" style="line;html=1;strokeWidth=1;fillColor=none;align=left;verticalAlign=middle;spacingTop=-1;spacingLeft=3;spacingRight=3;rotatable=0;labelPosition=right;points=[];portConstraint=eastwest;" vertex="1" parent="4Jaw9HgwLOjeu3vCRIFy-28">
          <mxGeometry y="104" width="160" height="8" as="geometry" />
        </mxCell>
        <mxCell id="4Jaw9HgwLOjeu3vCRIFy-33" value="+ method(type): type" style="text;html=1;strokeColor=none;fillColor=none;align=left;verticalAlign=top;spacingLeft=4;spacingRight=4;whiteSpace=wrap;overflow=hidden;rotatable=0;points=[[0,0.5],[1,0.5]];portConstraint=eastwest;" vertex="1" parent="4Jaw9HgwLOjeu3vCRIFy-28">
          <mxGeometry y="112" width="160" height="26" as="geometry" />
        </mxCell>
        <mxCell id="4Jaw9HgwLOjeu3vCRIFy-34" value="Estudiante" style="swimlane;html=1;fontStyle=1;align=center;verticalAlign=top;childLayout=stackLayout;horizontal=1;startSize=26;horizontalStack=0;resizeParent=1;resizeLast=0;collapsible=1;marginBottom=0;swimlaneFillColor=#ffffff;rounded=0;shadow=0;comic=0;labelBackgroundColor=none;strokeWidth=1;fillColor=none;fontFamily=Verdana;fontSize=12" vertex="1" collapsed="1" parent="1">
          <mxGeometry x="410" y="260" width="110" height="30" as="geometry">
            <mxRectangle x="360" y="140" width="160" height="168" as="alternateBounds" />
          </mxGeometry>
        </mxCell>
        <mxCell id="4Jaw9HgwLOjeu3vCRIFy-35" value="+ field: type" style="text;html=1;strokeColor=none;fillColor=none;align=left;verticalAlign=top;spacingLeft=4;spacingRight=4;whiteSpace=wrap;overflow=hidden;rotatable=0;points=[[0,0.5],[1,0.5]];portConstraint=eastwest;" vertex="1" parent="4Jaw9HgwLOjeu3vCRIFy-34">
          <mxGeometry y="26" width="160" height="26" as="geometry" />
        </mxCell>
        <mxCell id="4Jaw9HgwLOjeu3vCRIFy-36" value="+ field: type" style="text;html=1;strokeColor=none;fillColor=none;align=left;verticalAlign=top;spacingLeft=4;spacingRight=4;whiteSpace=wrap;overflow=hidden;rotatable=0;points=[[0,0.5],[1,0.5]];portConstraint=eastwest;" vertex="1" parent="4Jaw9HgwLOjeu3vCRIFy-34">
          <mxGeometry y="52" width="160" height="26" as="geometry" />
        </mxCell>
        <mxCell id="4Jaw9HgwLOjeu3vCRIFy-37" value="+ field: type" style="text;html=1;strokeColor=none;fillColor=none;align=left;verticalAlign=top;spacingLeft=4;spacingRight=4;whiteSpace=wrap;overflow=hidden;rotatable=0;points=[[0,0.5],[1,0.5]];portConstraint=eastwest;" vertex="1" parent="4Jaw9HgwLOjeu3vCRIFy-34">
          <mxGeometry y="78" width="160" height="26" as="geometry" />
        </mxCell>
        <mxCell id="4Jaw9HgwLOjeu3vCRIFy-38" value="" style="line;html=1;strokeWidth=1;fillColor=none;align=left;verticalAlign=middle;spacingTop=-1;spacingLeft=3;spacingRight=3;rotatable=0;labelPosition=right;points=[];portConstraint=eastwest;" vertex="1" parent="4Jaw9HgwLOjeu3vCRIFy-34">
          <mxGeometry y="104" width="160" height="8" as="geometry" />
        </mxCell>
        <mxCell id="4Jaw9HgwLOjeu3vCRIFy-39" value="+ method(type): type" style="text;html=1;strokeColor=none;fillColor=none;align=left;verticalAlign=top;spacingLeft=4;spacingRight=4;whiteSpace=wrap;overflow=hidden;rotatable=0;points=[[0,0.5],[1,0.5]];portConstraint=eastwest;" vertex="1" parent="4Jaw9HgwLOjeu3vCRIFy-34">
          <mxGeometry y="112" width="160" height="26" as="geometry" />
        </mxCell>
        <mxCell id="4Jaw9HgwLOjeu3vCRIFy-40" value="Administrador" style="swimlane;html=1;fontStyle=1;align=center;verticalAlign=top;childLayout=stackLayout;horizontal=1;startSize=26;horizontalStack=0;resizeParent=1;resizeLast=0;collapsible=1;marginBottom=0;swimlaneFillColor=#ffffff;rounded=0;shadow=0;comic=0;labelBackgroundColor=none;strokeWidth=1;fillColor=none;fontFamily=Verdana;fontSize=12" vertex="1" collapsed="1" parent="1">
          <mxGeometry x="610" y="120" width="110" height="30" as="geometry">
            <mxRectangle x="35" y="436" width="160" height="168" as="alternateBounds" />
          </mxGeometry>
        </mxCell>
        <mxCell id="4Jaw9HgwLOjeu3vCRIFy-41" value="+ field: type" style="text;html=1;strokeColor=none;fillColor=none;align=left;verticalAlign=top;spacingLeft=4;spacingRight=4;whiteSpace=wrap;overflow=hidden;rotatable=0;points=[[0,0.5],[1,0.5]];portConstraint=eastwest;" vertex="1" parent="4Jaw9HgwLOjeu3vCRIFy-40">
          <mxGeometry y="26" width="160" height="26" as="geometry" />
        </mxCell>
        <mxCell id="4Jaw9HgwLOjeu3vCRIFy-42" value="+ field: type" style="text;html=1;strokeColor=none;fillColor=none;align=left;verticalAlign=top;spacingLeft=4;spacingRight=4;whiteSpace=wrap;overflow=hidden;rotatable=0;points=[[0,0.5],[1,0.5]];portConstraint=eastwest;" vertex="1" parent="4Jaw9HgwLOjeu3vCRIFy-40">
          <mxGeometry y="52" width="160" height="26" as="geometry" />
        </mxCell>
        <mxCell id="4Jaw9HgwLOjeu3vCRIFy-43" value="+ field: type" style="text;html=1;strokeColor=none;fillColor=none;align=left;verticalAlign=top;spacingLeft=4;spacingRight=4;whiteSpace=wrap;overflow=hidden;rotatable=0;points=[[0,0.5],[1,0.5]];portConstraint=eastwest;" vertex="1" parent="4Jaw9HgwLOjeu3vCRIFy-40">
          <mxGeometry y="78" width="160" height="26" as="geometry" />
        </mxCell>
        <mxCell id="4Jaw9HgwLOjeu3vCRIFy-44" value="" style="line;html=1;strokeWidth=1;fillColor=none;align=left;verticalAlign=middle;spacingTop=-1;spacingLeft=3;spacingRight=3;rotatable=0;labelPosition=right;points=[];portConstraint=eastwest;" vertex="1" parent="4Jaw9HgwLOjeu3vCRIFy-40">
          <mxGeometry y="104" width="160" height="8" as="geometry" />
        </mxCell>
        <mxCell id="4Jaw9HgwLOjeu3vCRIFy-45" value="+ method(type): type" style="text;html=1;strokeColor=none;fillColor=none;align=left;verticalAlign=top;spacingLeft=4;spacingRight=4;whiteSpace=wrap;overflow=hidden;rotatable=0;points=[[0,0.5],[1,0.5]];portConstraint=eastwest;" vertex="1" parent="4Jaw9HgwLOjeu3vCRIFy-40">
          <mxGeometry y="112" width="160" height="26" as="geometry" />
        </mxCell>
        <mxCell id="4Jaw9HgwLOjeu3vCRIFy-46" value="Organizador" style="swimlane;html=1;fontStyle=1;align=center;verticalAlign=top;childLayout=stackLayout;horizontal=1;startSize=26;horizontalStack=0;resizeParent=1;resizeLast=0;collapsible=1;marginBottom=0;swimlaneFillColor=#ffffff;rounded=0;shadow=0;comic=0;labelBackgroundColor=none;strokeWidth=1;fillColor=none;fontFamily=Verdana;fontSize=12" vertex="1" collapsed="1" parent="1">
          <mxGeometry x="130" y="230" width="110" height="30" as="geometry">
            <mxRectangle x="35" y="436" width="160" height="168" as="alternateBounds" />
          </mxGeometry>
        </mxCell>
        <mxCell id="4Jaw9HgwLOjeu3vCRIFy-47" value="+ field: type" style="text;html=1;strokeColor=none;fillColor=none;align=left;verticalAlign=top;spacingLeft=4;spacingRight=4;whiteSpace=wrap;overflow=hidden;rotatable=0;points=[[0,0.5],[1,0.5]];portConstraint=eastwest;" vertex="1" parent="4Jaw9HgwLOjeu3vCRIFy-46">
          <mxGeometry y="26" width="160" height="26" as="geometry" />
        </mxCell>
        <mxCell id="4Jaw9HgwLOjeu3vCRIFy-48" value="+ field: type" style="text;html=1;strokeColor=none;fillColor=none;align=left;verticalAlign=top;spacingLeft=4;spacingRight=4;whiteSpace=wrap;overflow=hidden;rotatable=0;points=[[0,0.5],[1,0.5]];portConstraint=eastwest;" vertex="1" parent="4Jaw9HgwLOjeu3vCRIFy-46">
          <mxGeometry y="52" width="160" height="26" as="geometry" />
        </mxCell>
        <mxCell id="4Jaw9HgwLOjeu3vCRIFy-49" value="+ field: type" style="text;html=1;strokeColor=none;fillColor=none;align=left;verticalAlign=top;spacingLeft=4;spacingRight=4;whiteSpace=wrap;overflow=hidden;rotatable=0;points=[[0,0.5],[1,0.5]];portConstraint=eastwest;" vertex="1" parent="4Jaw9HgwLOjeu3vCRIFy-46">
          <mxGeometry y="78" width="160" height="26" as="geometry" />
        </mxCell>
        <mxCell id="4Jaw9HgwLOjeu3vCRIFy-50" value="" style="line;html=1;strokeWidth=1;fillColor=none;align=left;verticalAlign=middle;spacingTop=-1;spacingLeft=3;spacingRight=3;rotatable=0;labelPosition=right;points=[];portConstraint=eastwest;" vertex="1" parent="4Jaw9HgwLOjeu3vCRIFy-46">
          <mxGeometry y="104" width="160" height="8" as="geometry" />
        </mxCell>
        <mxCell id="4Jaw9HgwLOjeu3vCRIFy-51" value="+ method(type): type" style="text;html=1;strokeColor=none;fillColor=none;align=left;verticalAlign=top;spacingLeft=4;spacingRight=4;whiteSpace=wrap;overflow=hidden;rotatable=0;points=[[0,0.5],[1,0.5]];portConstraint=eastwest;" vertex="1" parent="4Jaw9HgwLOjeu3vCRIFy-46">
          <mxGeometry y="112" width="160" height="26" as="geometry" />
        </mxCell>
        <mxCell id="4Jaw9HgwLOjeu3vCRIFy-52" value="Horario" style="swimlane;html=1;fontStyle=1;align=center;verticalAlign=top;childLayout=stackLayout;horizontal=1;startSize=26;horizontalStack=0;resizeParent=1;resizeLast=0;collapsible=1;marginBottom=0;swimlaneFillColor=#ffffff;rounded=0;shadow=0;comic=0;labelBackgroundColor=none;strokeWidth=1;fillColor=none;fontFamily=Verdana;fontSize=12" vertex="1" collapsed="1" parent="1">
          <mxGeometry x="410" y="340" width="110" height="30" as="geometry">
            <mxRectangle x="35" y="436" width="160" height="168" as="alternateBounds" />
          </mxGeometry>
        </mxCell>
        <mxCell id="4Jaw9HgwLOjeu3vCRIFy-53" value="+ field: type" style="text;html=1;strokeColor=none;fillColor=none;align=left;verticalAlign=top;spacingLeft=4;spacingRight=4;whiteSpace=wrap;overflow=hidden;rotatable=0;points=[[0,0.5],[1,0.5]];portConstraint=eastwest;" vertex="1" parent="4Jaw9HgwLOjeu3vCRIFy-52">
          <mxGeometry y="26" width="160" height="26" as="geometry" />
        </mxCell>
        <mxCell id="4Jaw9HgwLOjeu3vCRIFy-54" value="+ field: type" style="text;html=1;strokeColor=none;fillColor=none;align=left;verticalAlign=top;spacingLeft=4;spacingRight=4;whiteSpace=wrap;overflow=hidden;rotatable=0;points=[[0,0.5],[1,0.5]];portConstraint=eastwest;" vertex="1" parent="4Jaw9HgwLOjeu3vCRIFy-52">
          <mxGeometry y="52" width="160" height="26" as="geometry" />
        </mxCell>
        <mxCell id="4Jaw9HgwLOjeu3vCRIFy-55" value="+ field: type" style="text;html=1;strokeColor=none;fillColor=none;align=left;verticalAlign=top;spacingLeft=4;spacingRight=4;whiteSpace=wrap;overflow=hidden;rotatable=0;points=[[0,0.5],[1,0.5]];portConstraint=eastwest;" vertex="1" parent="4Jaw9HgwLOjeu3vCRIFy-52">
          <mxGeometry y="78" width="160" height="26" as="geometry" />
        </mxCell>
        <mxCell id="4Jaw9HgwLOjeu3vCRIFy-56" value="" style="line;html=1;strokeWidth=1;fillColor=none;align=left;verticalAlign=middle;spacingTop=-1;spacingLeft=3;spacingRight=3;rotatable=0;labelPosition=right;points=[];portConstraint=eastwest;" vertex="1" parent="4Jaw9HgwLOjeu3vCRIFy-52">
          <mxGeometry y="104" width="160" height="8" as="geometry" />
        </mxCell>
        <mxCell id="4Jaw9HgwLOjeu3vCRIFy-57" value="+ method(type): type" style="text;html=1;strokeColor=none;fillColor=none;align=left;verticalAlign=top;spacingLeft=4;spacingRight=4;whiteSpace=wrap;overflow=hidden;rotatable=0;points=[[0,0.5],[1,0.5]];portConstraint=eastwest;" vertex="1" parent="4Jaw9HgwLOjeu3vCRIFy-52">
          <mxGeometry y="112" width="160" height="26" as="geometry" />
        </mxCell>
        <mxCell id="4Jaw9HgwLOjeu3vCRIFy-58" value="Profesor" style="swimlane;html=1;fontStyle=1;align=center;verticalAlign=top;childLayout=stackLayout;horizontal=1;startSize=26;horizontalStack=0;resizeParent=1;resizeLast=0;collapsible=1;marginBottom=0;swimlaneFillColor=#ffffff;rounded=0;shadow=0;comic=0;labelBackgroundColor=none;strokeWidth=1;fillColor=none;fontFamily=Verdana;fontSize=12" vertex="1" collapsed="1" parent="1">
          <mxGeometry x="750" y="350" width="110" height="30" as="geometry">
            <mxRectangle x="35" y="436" width="160" height="168" as="alternateBounds" />
          </mxGeometry>
        </mxCell>
        <mxCell id="4Jaw9HgwLOjeu3vCRIFy-59" value="+ field: type" style="text;html=1;strokeColor=none;fillColor=none;align=left;verticalAlign=top;spacingLeft=4;spacingRight=4;whiteSpace=wrap;overflow=hidden;rotatable=0;points=[[0,0.5],[1,0.5]];portConstraint=eastwest;" vertex="1" parent="4Jaw9HgwLOjeu3vCRIFy-58">
          <mxGeometry y="26" width="160" height="26" as="geometry" />
        </mxCell>
        <mxCell id="4Jaw9HgwLOjeu3vCRIFy-60" value="+ field: type" style="text;html=1;strokeColor=none;fillColor=none;align=left;verticalAlign=top;spacingLeft=4;spacingRight=4;whiteSpace=wrap;overflow=hidden;rotatable=0;points=[[0,0.5],[1,0.5]];portConstraint=eastwest;" vertex="1" parent="4Jaw9HgwLOjeu3vCRIFy-58">
          <mxGeometry y="52" width="160" height="26" as="geometry" />
        </mxCell>
        <mxCell id="4Jaw9HgwLOjeu3vCRIFy-61" value="+ field: type" style="text;html=1;strokeColor=none;fillColor=none;align=left;verticalAlign=top;spacingLeft=4;spacingRight=4;whiteSpace=wrap;overflow=hidden;rotatable=0;points=[[0,0.5],[1,0.5]];portConstraint=eastwest;" vertex="1" parent="4Jaw9HgwLOjeu3vCRIFy-58">
          <mxGeometry y="78" width="160" height="26" as="geometry" />
        </mxCell>
        <mxCell id="4Jaw9HgwLOjeu3vCRIFy-62" value="" style="line;html=1;strokeWidth=1;fillColor=none;align=left;verticalAlign=middle;spacingTop=-1;spacingLeft=3;spacingRight=3;rotatable=0;labelPosition=right;points=[];portConstraint=eastwest;" vertex="1" parent="4Jaw9HgwLOjeu3vCRIFy-58">
          <mxGeometry y="104" width="160" height="8" as="geometry" />
        </mxCell>
        <mxCell id="4Jaw9HgwLOjeu3vCRIFy-63" value="+ method(type): type" style="text;html=1;strokeColor=none;fillColor=none;align=left;verticalAlign=top;spacingLeft=4;spacingRight=4;whiteSpace=wrap;overflow=hidden;rotatable=0;points=[[0,0.5],[1,0.5]];portConstraint=eastwest;" vertex="1" parent="4Jaw9HgwLOjeu3vCRIFy-58">
          <mxGeometry y="112" width="160" height="26" as="geometry" />
        </mxCell>
        <mxCell id="4Jaw9HgwLOjeu3vCRIFy-64" value="" style="html=1;endArrow=diamondThin;endFill=1;edgeStyle=elbowEdgeStyle;elbow=vertical;endSize=10;" edge="1" parent="1" source="4Jaw9HgwLOjeu3vCRIFy-16" target="4Jaw9HgwLOjeu3vCRIFy-4">
          <mxGeometry width="160" relative="1" as="geometry">
            <mxPoint x="360" y="550" as="sourcePoint" />
            <mxPoint x="520" y="550" as="targetPoint" />
          </mxGeometry>
        </mxCell>
        <mxCell id="4Jaw9HgwLOjeu3vCRIFy-65" value="1" style="edgeLabel;html=1;align=center;verticalAlign=middle;resizable=0;points=[];" vertex="1" connectable="0" parent="4Jaw9HgwLOjeu3vCRIFy-64">
          <mxGeometry x="0.3163" y="-2" relative="1" as="geometry">
            <mxPoint x="38" y="-18" as="offset" />
          </mxGeometry>
        </mxCell>
        <mxCell id="4Jaw9HgwLOjeu3vCRIFy-66" value="1..*" style="edgeLabel;html=1;align=center;verticalAlign=middle;resizable=0;points=[];" vertex="1" connectable="0" parent="4Jaw9HgwLOjeu3vCRIFy-64">
          <mxGeometry x="-0.4522" y="-2" relative="1" as="geometry">
            <mxPoint x="-27" y="-18" as="offset" />
          </mxGeometry>
        </mxCell>
        <mxCell id="4Jaw9HgwLOjeu3vCRIFy-67" value="" style="html=1;endArrow=diamondThin;endFill=1;edgeStyle=elbowEdgeStyle;elbow=vertical;endSize=10;" edge="1" parent="1" source="4Jaw9HgwLOjeu3vCRIFy-4" target="4Jaw9HgwLOjeu3vCRIFy-10">
          <mxGeometry width="160" relative="1" as="geometry">
            <mxPoint x="360" y="550" as="sourcePoint" />
            <mxPoint x="520" y="550" as="targetPoint" />
          </mxGeometry>
        </mxCell>
        <mxCell id="4Jaw9HgwLOjeu3vCRIFy-68" value="1..*" style="edgeLabel;html=1;align=center;verticalAlign=middle;resizable=0;points=[];" vertex="1" connectable="0" parent="4Jaw9HgwLOjeu3vCRIFy-67">
          <mxGeometry x="0.344" y="-1" relative="1" as="geometry">
            <mxPoint x="-54" y="-16" as="offset" />
          </mxGeometry>
        </mxCell>
        <mxCell id="4Jaw9HgwLOjeu3vCRIFy-69" value="1" style="edgeLabel;html=1;align=center;verticalAlign=middle;resizable=0;points=[];" vertex="1" connectable="0" parent="4Jaw9HgwLOjeu3vCRIFy-67">
          <mxGeometry x="-0.68" relative="1" as="geometry">
            <mxPoint x="73" y="-15" as="offset" />
          </mxGeometry>
        </mxCell>
        <mxCell id="4Jaw9HgwLOjeu3vCRIFy-70" value="" style="html=1;endArrow=diamondThin;endFill=0;edgeStyle=elbowEdgeStyle;elbow=vertical;endSize=10;" edge="1" parent="1" source="4Jaw9HgwLOjeu3vCRIFy-4" target="4Jaw9HgwLOjeu3vCRIFy-52">
          <mxGeometry width="160" relative="1" as="geometry">
            <mxPoint x="390" y="500" as="sourcePoint" />
            <mxPoint x="550" y="500" as="targetPoint" />
          </mxGeometry>
        </mxCell>
        <mxCell id="4Jaw9HgwLOjeu3vCRIFy-71" value="1" style="edgeLabel;html=1;align=center;verticalAlign=middle;resizable=0;points=[];" vertex="1" connectable="0" parent="4Jaw9HgwLOjeu3vCRIFy-70">
          <mxGeometry x="0.7199" y="1" relative="1" as="geometry">
            <mxPoint x="-14" y="-8" as="offset" />
          </mxGeometry>
        </mxCell>
        <mxCell id="4Jaw9HgwLOjeu3vCRIFy-72" value="1..*" style="edgeLabel;html=1;align=center;verticalAlign=middle;resizable=0;points=[];" vertex="1" connectable="0" parent="4Jaw9HgwLOjeu3vCRIFy-70">
          <mxGeometry x="-0.5248" y="-2" relative="1" as="geometry">
            <mxPoint x="43" y="-39" as="offset" />
          </mxGeometry>
        </mxCell>
        <mxCell id="4Jaw9HgwLOjeu3vCRIFy-73" value="" style="endArrow=classic;startArrow=none;endFill=1;startFill=0;endSize=8;html=1;verticalAlign=bottom;labelBackgroundColor=none;strokeWidth=3;" edge="1" parent="1" source="4Jaw9HgwLOjeu3vCRIFy-52" target="4Jaw9HgwLOjeu3vCRIFy-22">
          <mxGeometry width="160" relative="1" as="geometry">
            <mxPoint x="390" y="450" as="sourcePoint" />
            <mxPoint x="550" y="450" as="targetPoint" />
          </mxGeometry>
        </mxCell>
        <mxCell id="4Jaw9HgwLOjeu3vCRIFy-74" value="Puede tener" style="edgeLabel;html=1;align=center;verticalAlign=middle;resizable=0;points=[];" vertex="1" connectable="0" parent="4Jaw9HgwLOjeu3vCRIFy-73">
          <mxGeometry x="0.3361" relative="1" as="geometry">
            <mxPoint x="23" y="-15" as="offset" />
          </mxGeometry>
        </mxCell>
        <mxCell id="4Jaw9HgwLOjeu3vCRIFy-75" value="" style="html=1;endArrow=diamondThin;endFill=0;edgeStyle=elbowEdgeStyle;elbow=vertical;endSize=10;" edge="1" parent="1" source="4Jaw9HgwLOjeu3vCRIFy-16" target="4Jaw9HgwLOjeu3vCRIFy-22">
          <mxGeometry width="160" relative="1" as="geometry">
            <mxPoint x="214.71" y="481" as="sourcePoint" />
            <mxPoint x="214.71" y="380" as="targetPoint" />
          </mxGeometry>
        </mxCell>
        <mxCell id="4Jaw9HgwLOjeu3vCRIFy-76" value="1" style="edgeLabel;html=1;align=center;verticalAlign=middle;resizable=0;points=[];" vertex="1" connectable="0" parent="4Jaw9HgwLOjeu3vCRIFy-75">
          <mxGeometry x="0.7199" y="1" relative="1" as="geometry">
            <mxPoint x="16" y="6" as="offset" />
          </mxGeometry>
        </mxCell>
        <mxCell id="4Jaw9HgwLOjeu3vCRIFy-77" value="1..*" style="edgeLabel;html=1;align=center;verticalAlign=middle;resizable=0;points=[];" vertex="1" connectable="0" parent="4Jaw9HgwLOjeu3vCRIFy-75">
          <mxGeometry x="-0.5248" y="-2" relative="1" as="geometry">
            <mxPoint x="13" y="21" as="offset" />
          </mxGeometry>
        </mxCell>
        <mxCell id="4Jaw9HgwLOjeu3vCRIFy-78" value="" style="html=1;endArrow=diamondThin;endFill=0;edgeStyle=elbowEdgeStyle;elbow=vertical;endSize=10;" edge="1" parent="1" source="4Jaw9HgwLOjeu3vCRIFy-52" target="4Jaw9HgwLOjeu3vCRIFy-34">
          <mxGeometry width="160" relative="1" as="geometry">
            <mxPoint x="415" y="260" as="sourcePoint" />
            <mxPoint x="415" y="361" as="targetPoint" />
          </mxGeometry>
        </mxCell>
        <mxCell id="4Jaw9HgwLOjeu3vCRIFy-79" value="1" style="edgeLabel;html=1;align=center;verticalAlign=middle;resizable=0;points=[];" vertex="1" connectable="0" parent="4Jaw9HgwLOjeu3vCRIFy-78">
          <mxGeometry x="0.7199" y="1" relative="1" as="geometry">
            <mxPoint x="18" y="3" as="offset" />
          </mxGeometry>
        </mxCell>
        <mxCell id="4Jaw9HgwLOjeu3vCRIFy-80" value="1" style="edgeLabel;html=1;align=center;verticalAlign=middle;resizable=0;points=[];" vertex="1" connectable="0" parent="4Jaw9HgwLOjeu3vCRIFy-78">
          <mxGeometry x="-0.5248" y="-2" relative="1" as="geometry">
            <mxPoint x="-17" y="2" as="offset" />
          </mxGeometry>
        </mxCell>
        <mxCell id="4Jaw9HgwLOjeu3vCRIFy-81" value="" style="html=1;endArrow=diamondThin;endFill=0;edgeStyle=elbowEdgeStyle;elbow=vertical;endSize=10;exitX=0.75;exitY=0;exitDx=0;exitDy=0;" edge="1" parent="1" source="4Jaw9HgwLOjeu3vCRIFy-4" target="4Jaw9HgwLOjeu3vCRIFy-58">
          <mxGeometry width="160" relative="1" as="geometry">
            <mxPoint x="405" y="360" as="sourcePoint" />
            <mxPoint x="405" y="310" as="targetPoint" />
          </mxGeometry>
        </mxCell>
        <mxCell id="4Jaw9HgwLOjeu3vCRIFy-82" value="1" style="edgeLabel;html=1;align=center;verticalAlign=middle;resizable=0;points=[];" vertex="1" connectable="0" parent="4Jaw9HgwLOjeu3vCRIFy-81">
          <mxGeometry x="0.7199" y="1" relative="1" as="geometry">
            <mxPoint x="-15" y="-39" as="offset" />
          </mxGeometry>
        </mxCell>
        <mxCell id="4Jaw9HgwLOjeu3vCRIFy-83" value="1..*" style="edgeLabel;html=1;align=center;verticalAlign=middle;resizable=0;points=[];" vertex="1" connectable="0" parent="4Jaw9HgwLOjeu3vCRIFy-81">
          <mxGeometry x="-0.5248" y="-2" relative="1" as="geometry">
            <mxPoint x="-86" y="43" as="offset" />
          </mxGeometry>
        </mxCell>
        <mxCell id="4Jaw9HgwLOjeu3vCRIFy-84" value="" style="html=1;endArrow=diamondThin;endFill=0;edgeStyle=elbowEdgeStyle;elbow=vertical;endSize=10;" edge="1" parent="1" source="4Jaw9HgwLOjeu3vCRIFy-22" target="4Jaw9HgwLOjeu3vCRIFy-46">
          <mxGeometry width="160" relative="1" as="geometry">
            <mxPoint x="475" y="350" as="sourcePoint" />
            <mxPoint x="475" y="270" as="targetPoint" />
          </mxGeometry>
        </mxCell>
        <mxCell id="4Jaw9HgwLOjeu3vCRIFy-85" value="1" style="edgeLabel;html=1;align=center;verticalAlign=middle;resizable=0;points=[];" vertex="1" connectable="0" parent="4Jaw9HgwLOjeu3vCRIFy-84">
          <mxGeometry x="0.7199" y="1" relative="1" as="geometry">
            <mxPoint x="18" y="-1" as="offset" />
          </mxGeometry>
        </mxCell>
        <mxCell id="4Jaw9HgwLOjeu3vCRIFy-86" value="1" style="edgeLabel;html=1;align=center;verticalAlign=middle;resizable=0;points=[];" vertex="1" connectable="0" parent="4Jaw9HgwLOjeu3vCRIFy-84">
          <mxGeometry x="-0.5248" y="-2" relative="1" as="geometry">
            <mxPoint x="-7" y="9" as="offset" />
          </mxGeometry>
        </mxCell>
        <mxCell id="4Jaw9HgwLOjeu3vCRIFy-87" value="" style="endArrow=none;startArrow=none;endFill=0;startFill=0;endSize=8;html=1;verticalAlign=bottom;labelBackgroundColor=none;strokeWidth=3;edgeStyle=orthogonalEdgeStyle;entryX=0.5;entryY=1;entryDx=0;entryDy=0;exitX=0.5;exitY=0;exitDx=0;exitDy=0;" edge="1" parent="1" source="4Jaw9HgwLOjeu3vCRIFy-58" target="4Jaw9HgwLOjeu3vCRIFy-40">
          <mxGeometry width="160" relative="1" as="geometry">
            <mxPoint x="510" y="310" as="sourcePoint" />
            <mxPoint x="670" y="310" as="targetPoint" />
            <Array as="points">
              <mxPoint x="805" y="190" />
              <mxPoint x="665" y="190" />
            </Array>
          </mxGeometry>
        </mxCell>
        <mxCell id="4Jaw9HgwLOjeu3vCRIFy-88" value="Gestiona" style="edgeLabel;html=1;align=center;verticalAlign=middle;resizable=0;points=[];" vertex="1" connectable="0" parent="4Jaw9HgwLOjeu3vCRIFy-87">
          <mxGeometry x="-0.7184" y="1" relative="1" as="geometry">
            <mxPoint x="26" as="offset" />
          </mxGeometry>
        </mxCell>
        <mxCell id="4Jaw9HgwLOjeu3vCRIFy-89" value="" style="endArrow=none;startArrow=none;endFill=0;startFill=0;endSize=8;html=1;verticalAlign=bottom;labelBackgroundColor=none;strokeWidth=3;edgeStyle=orthogonalEdgeStyle;exitX=0.5;exitY=1;exitDx=0;exitDy=0;" edge="1" parent="1" source="4Jaw9HgwLOjeu3vCRIFy-40" target="4Jaw9HgwLOjeu3vCRIFy-46">
          <mxGeometry width="160" relative="1" as="geometry">
            <mxPoint x="760" y="196.32352941176475" as="sourcePoint" />
            <mxPoint x="530" y="243.67647058823536" as="targetPoint" />
            <Array as="points">
              <mxPoint x="665" y="190" />
              <mxPoint x="185" y="190" />
            </Array>
          </mxGeometry>
        </mxCell>
        <mxCell id="4Jaw9HgwLOjeu3vCRIFy-90" value="Asigna organizadores" style="edgeLabel;html=1;align=center;verticalAlign=middle;resizable=0;points=[];" vertex="1" connectable="0" parent="4Jaw9HgwLOjeu3vCRIFy-89">
          <mxGeometry x="-0.1236" relative="1" as="geometry">
            <mxPoint x="-169" y="-15" as="offset" />
          </mxGeometry>
        </mxCell>
        <mxCell id="4Jaw9HgwLOjeu3vCRIFy-91" value="" style="endArrow=none;startArrow=none;endFill=0;startFill=0;endSize=8;html=1;verticalAlign=bottom;labelBackgroundColor=none;strokeWidth=3;edgeStyle=elbowEdgeStyle;exitX=0.5;exitY=0;exitDx=0;exitDy=0;elbow=vertical;entryX=0.5;entryY=1;entryDx=0;entryDy=0;" edge="1" parent="1" source="4Jaw9HgwLOjeu3vCRIFy-28" target="4Jaw9HgwLOjeu3vCRIFy-40">
          <mxGeometry width="160" relative="1" as="geometry">
            <mxPoint x="940" y="440" as="sourcePoint" />
            <mxPoint x="665" y="160" as="targetPoint" />
            <Array as="points">
              <mxPoint x="820" y="190" />
            </Array>
          </mxGeometry>
        </mxCell>
        <mxCell id="4Jaw9HgwLOjeu3vCRIFy-92" value="Puede modificar" style="edgeLabel;html=1;align=center;verticalAlign=middle;resizable=0;points=[];" vertex="1" connectable="0" parent="1">
          <mxGeometry x="840.0039400485991" y="170" as="geometry">
            <mxPoint x="-6" y="2" as="offset" />
          </mxGeometry>
        </mxCell>
        <mxCell id="4Jaw9HgwLOjeu3vCRIFy-93" value="" style="endArrow=none;startArrow=none;endFill=0;startFill=0;endSize=8;html=1;verticalAlign=bottom;labelBackgroundColor=none;strokeWidth=3;edgeStyle=orthogonalEdgeStyle;exitX=0.5;exitY=1;exitDx=0;exitDy=0;" edge="1" parent="1" source="4Jaw9HgwLOjeu3vCRIFy-40" target="4Jaw9HgwLOjeu3vCRIFy-34">
          <mxGeometry width="160" relative="1" as="geometry">
            <mxPoint x="675" y="160" as="sourcePoint" />
            <mxPoint x="195.04347826086962" y="240" as="targetPoint" />
          </mxGeometry>
        </mxCell>
        <mxCell id="4Jaw9HgwLOjeu3vCRIFy-94" value="Modifica Permisos" style="edgeLabel;html=1;align=center;verticalAlign=middle;resizable=0;points=[];" vertex="1" connectable="0" parent="4Jaw9HgwLOjeu3vCRIFy-93">
          <mxGeometry x="-0.1236" relative="1" as="geometry">
            <mxPoint x="-64" y="15" as="offset" />
          </mxGeometry>
        </mxCell>
      </root>
    </mxGraphModel>
  </diagram>
</mxfile>
